<svg width="140" height="42" viewBox="0 0 140 42" fill="none" xmlns="http://www.w3.org/2000/svg">
<g clip-path="url(#clip0_1_212)">
<path d="M0 5.6C0 2.50721 2.47748 0 5.5336 0H134.466C137.523 0 140 2.50721 140 5.6V36.4C140 39.4928 137.523 42 134.466 42H5.5336C2.47748 42 0 39.4928 0 36.4V5.6Z" fill="black"/>
<path fill-rule="evenodd" clip-rule="evenodd" d="M0 36.4V5.6C0 2.50721 2.47747 0 5.5336 0H134.466C137.523 0 140 2.50721 140 5.6V36.4C140 39.4928 137.523 42 134.466 42H5.5336C2.47748 42 0 39.4928 0 36.4ZM0.830039 36.4V5.6C0.830039 2.97112 2.93589 0.84 5.5336 0.84H134.466C137.064 0.84 139.17 2.97112 139.17 5.6V36.4C139.17 39.0289 137.064 41.16 134.466 41.16H5.5336C2.93589 41.16 0.830039 39.0289 0.830039 36.4Z" fill="white" fill-opacity="0.3"/>
<path d="M29.5195 25.5031C32.8344 23.6441 35.3476 22.2277 35.5642 22.1177C36.2569 21.7412 36.9726 20.7452 35.5642 19.9716C35.1094 19.7283 32.661 18.3558 29.5195 16.5862L25.1649 21.0776L29.5193 25.5031H29.5195Z" fill="#FFD900"/>
<path d="M25.1649 21.0776L11.2987 35.3502C11.624 35.3942 11.9915 35.3061 12.4249 35.0628C13.3344 34.5545 22.976 29.1768 29.5198 25.5041L25.1649 21.0776Z" fill="#F43249"/>
<path d="M25.1649 21.0776L29.5193 16.608C29.5193 16.608 13.4002 7.62402 12.4247 7.09391C12.0577 6.87101 11.6458 6.80511 11.2774 6.87101L25.1649 21.0774V21.0776Z" fill="#00EE76"/>
<path d="M25.1649 21.0777L11.2772 6.87134C10.7135 7.00435 10.2372 7.5129 10.2372 8.55252V33.6683C10.2372 34.6205 10.6058 35.3061 11.2985 35.372L25.1647 21.0775L25.1649 21.0777Z" fill="#00D3FF"/>
<path d="M70.9365 22.8169C68.4451 22.8169 66.3866 24.786 66.3866 27.4857C66.3866 30.1634 68.4235 32.1544 70.9367 32.1544C73.4497 32.1544 75.4864 30.1854 75.4864 27.4857C75.4864 24.786 73.4497 22.8169 70.9365 22.8169ZM70.9365 30.2966C69.5712 30.2966 68.3803 29.1235 68.3803 27.4649C68.3803 25.7832 69.5722 24.6331 70.9365 24.6331C72.3008 24.6331 73.4927 25.7832 73.4927 27.4649C73.4927 29.1235 72.3008 30.2966 70.9365 30.2966ZM61.0352 22.8169C58.5219 22.8169 56.4851 24.786 56.4851 27.4857C56.4851 30.1634 58.5219 32.1544 61.0352 32.1544C63.5482 32.1544 65.585 30.1854 65.585 27.4857C65.585 24.786 63.5482 22.8169 61.0349 22.8169H61.0352ZM61.0352 30.2966C59.6697 30.2966 58.479 29.1235 58.479 27.4649C58.479 25.7832 59.6709 24.6331 61.0352 24.6331C62.4004 24.6331 63.5913 25.7832 63.5913 27.4649C63.5913 29.1235 62.4208 30.2966 61.0352 30.2966ZM49.2704 24.2554V26.2244H53.8632C53.7327 27.3306 53.3655 28.1493 52.8234 28.7029C52.1521 29.3886 51.112 30.1413 49.2704 30.1413C46.4317 30.1413 44.2442 27.7961 44.2442 24.8972C44.2442 21.9983 46.4329 19.6087 49.2704 19.6087C50.8081 19.6087 51.9139 20.2284 52.7371 21.0253L54.1014 19.6307C52.9527 18.5027 51.415 17.6399 49.2704 17.6399C45.3917 17.6399 42.1416 20.892 42.1416 24.8531C42.1416 28.8144 45.3917 32.0665 49.2704 32.0665C51.3718 32.0665 52.9323 31.3588 54.1887 30.0304C55.4669 28.725 55.8569 26.888 55.8569 25.4057C55.8569 24.9413 55.814 24.5207 55.7482 24.1664L49.2704 24.2554ZM97.4125 25.782C97.0438 24.7419 95.8745 22.8169 93.5337 22.8169C91.1932 22.8169 89.2652 24.698 89.2652 27.4857C89.2652 30.0963 91.1932 32.1544 93.7506 32.1544C95.8304 32.1544 97.0222 30.849 97.5202 30.0963L95.9824 29.0344C95.462 29.8092 94.769 30.3175 93.7506 30.3175C92.7321 30.3175 92.0176 29.853 91.5619 28.9011L97.6065 26.3126L97.4125 25.782ZM91.2589 27.3537C91.216 25.5608 92.6244 24.6319 93.6201 24.6319C94.4219 24.6319 95.0719 25.0302 95.3099 25.6279L91.2589 27.3537ZM86.3406 31.845H88.3343V18.1702H86.3406V31.845ZM83.0915 23.8571H83.0268C82.572 23.3034 81.7272 22.8169 80.6431 22.8169C78.368 22.8169 76.3098 24.8751 76.3098 27.4857C76.3098 30.0963 78.3896 32.1326 80.6431 32.1326C81.726 32.1326 82.571 31.6459 83.0268 31.0702H83.0915V31.7341C83.0915 33.527 82.1592 34.4777 80.6646 34.4777C79.4512 34.4777 78.6925 33.5708 78.3896 32.818L76.6569 33.5708C77.1546 34.8101 78.4769 36.3367 80.6646 36.3367C83.0042 36.3367 84.9763 34.9203 84.9763 31.4908V23.1043H83.0915V23.8571ZM80.8165 30.2966C79.4512 30.2966 78.3035 29.1235 78.3035 27.4869C78.3035 25.8503 79.4522 24.6549 80.8165 24.6549C82.1604 24.6549 83.2434 25.8503 83.2434 27.4869C83.2424 29.1015 82.1592 30.2966 80.8165 30.2966ZM106.707 18.1705H101.941V31.845H103.934V26.6668H106.707C108.917 26.6668 111.084 25.029 111.084 22.4186C111.084 19.8081 108.917 18.1702 106.707 18.1702V18.1705ZM106.772 24.7651H103.955V20.0731H106.772C108.245 20.0731 109.112 21.3344 109.112 22.4184C109.091 23.4806 108.246 24.7651 106.772 24.7651ZM119.036 22.7949C117.606 22.7949 116.111 23.4367 115.504 24.8972L117.259 25.6499C117.65 24.8972 118.343 24.6539 119.08 24.6539C120.12 24.6539 121.16 25.2955 121.181 26.4235V26.5568C120.812 26.3356 120.055 26.0252 119.101 26.0252C117.195 26.0252 115.266 27.1094 115.266 29.1015C115.266 30.9382 116.826 32.1106 118.559 32.1106C119.903 32.1106 120.639 31.4908 121.094 30.7611H121.159V31.8232H123.086V26.5786C123.065 24.1672 121.31 22.7947 119.036 22.7947V22.7949ZM118.797 30.2746C118.147 30.2746 117.237 29.9422 117.237 29.1245C117.237 28.0623 118.363 27.664 119.338 27.664C120.205 27.664 120.617 27.8632 121.159 28.1285C121.007 29.3898 119.945 30.2746 118.797 30.2746ZM130.042 23.1055L127.767 29.0133H127.702L125.341 23.1053H123.196L126.749 31.3806L124.734 36.0055H126.814L132.252 23.1053H130.042L130.042 23.1055ZM112.189 31.845H114.183V18.1702H112.189V31.845Z" fill="white"/>
<path d="M46.0594 13.8635C45.4574 13.8635 44.9025 13.7171 44.3949 13.4244C43.8873 13.1317 43.483 12.7315 43.1819 12.2238C42.8868 11.7101 42.7393 11.1396 42.7393 10.5124C42.7393 9.88522 42.8868 9.31775 43.1819 8.81002C43.483 8.29631 43.8873 7.89311 44.3949 7.60042C44.9025 7.30772 45.4574 7.16138 46.0594 7.16138C46.5375 7.16138 46.9832 7.24799 47.3963 7.42122C47.8095 7.59444 48.1548 7.83636 48.4322 8.14698L47.7416 8.84586C47.535 8.6129 47.2871 8.4337 46.9979 8.30826C46.7146 8.18282 46.3988 8.1201 46.0506 8.1201C45.6433 8.1201 45.2626 8.21866 44.9084 8.41578C44.5543 8.6129 44.271 8.89364 44.0585 9.25802C43.846 9.62239 43.7397 10.0405 43.7397 10.5124C43.7397 10.9843 43.846 11.4024 44.0585 11.7668C44.271 12.1312 44.5543 12.4119 44.9084 12.6091C45.2626 12.8062 45.6462 12.9047 46.0594 12.9047C46.4372 12.9047 46.753 12.848 47.0068 12.7345C47.2606 12.621 47.4878 12.4687 47.6885 12.2775C47.8184 12.1461 47.9276 11.9819 48.0161 11.7847C48.1105 11.5876 48.1725 11.3726 48.202 11.1396H46.0506V10.2436H49.1405C49.17 10.4109 49.1848 10.5841 49.1848 10.7633C49.1848 11.1695 49.1228 11.5607 48.9989 11.9371C48.8749 12.3074 48.6772 12.63 48.4057 12.9047C47.8095 13.5439 47.0274 13.8635 46.0594 13.8635Z" fill="white"/>
<path d="M50.1081 7.30474H53.9595V8.26346H51.0998V10.0375H53.6762V10.9873H51.0998V12.7614H53.9595V13.7201H50.1081V7.30474Z" fill="white"/>
<path d="M56.2546 8.26346H54.4838V7.30474H59.017V8.26346H57.2462V13.7201H56.2546V8.26346Z" fill="white"/>
<path d="M61.6094 7.30474H62.601V13.7201H61.6094V7.30474Z" fill="white"/>
<path d="M65.1101 8.26346H63.3393V7.30474H67.8724V8.26346H66.1017V13.7201H65.1101V8.26346Z" fill="white"/>
<path d="M73.2579 13.8635C72.6441 13.8635 72.0863 13.7171 71.5846 13.4244C71.0829 13.1258 70.6874 12.7196 70.3982 12.2059C70.1149 11.6922 69.9732 11.1277 69.9732 10.5124C69.9732 9.89716 70.1149 9.33567 70.3982 8.82794C70.6874 8.31423 71.0829 7.90804 71.5846 7.60938C72.0863 7.31071 72.6441 7.16138 73.2579 7.16138C73.8718 7.16138 74.4266 7.31071 74.9225 7.60938C75.4242 7.90804 75.8196 8.31423 76.1089 8.82794C76.3981 9.33567 76.5427 9.89716 76.5427 10.5124C76.5427 11.1277 76.3981 11.6922 76.1089 12.2059C75.8255 12.7196 75.433 13.1258 74.9313 13.4244C74.4296 13.7171 73.8718 13.8635 73.2579 13.8635ZM73.2579 12.9047C73.677 12.9047 74.0607 12.8032 74.4089 12.6001C74.7572 12.397 75.0316 12.1163 75.2323 11.7579C75.433 11.3935 75.5334 10.9783 75.5334 10.5124C75.5334 10.0465 75.433 9.63434 75.2323 9.27594C75.0316 8.91156 74.7572 8.62783 74.4089 8.42474C74.0607 8.22164 73.677 8.1201 73.2579 8.1201C72.8389 8.1201 72.4552 8.22164 72.107 8.42474C71.7587 8.62783 71.4813 8.91156 71.2747 9.27594C71.074 9.63434 70.9737 10.0465 70.9737 10.5124C70.9737 10.9783 71.074 11.3935 71.2747 11.7579C71.4813 12.1163 71.7587 12.397 72.107 12.6001C72.4552 12.8032 72.8389 12.9047 73.2579 12.9047Z" fill="white"/>
<path d="M77.4545 7.30474H78.632L81.4652 11.9729H81.5184L81.4652 10.7364V7.30474H82.448V13.7201H81.4121L78.4373 8.81002H78.3841L78.4373 10.0465V13.7201H77.4545V7.30474Z" fill="white"/>
</g>
<defs>
<clipPath id="clip0_1_212">
<rect width="140" height="42" fill="white"/>
</clipPath>
</defs>
</svg>
