<svg width="140" height="42" viewBox="0 0 140 42" fill="none" xmlns="http://www.w3.org/2000/svg">
<g clip-path="url(#clip0_1_214)">
<path d="M0 5.6C0 2.50721 2.47748 0 5.5336 0H134.466C137.523 0 140 2.50721 140 5.6V36.4C140 39.4928 137.523 42 134.466 42H5.5336C2.47748 42 0 39.4928 0 36.4V5.6Z" fill="black"/>
<path fill-rule="evenodd" clip-rule="evenodd" d="M0 36.4V5.6C0 2.50721 2.47747 0 5.5336 0H134.466C137.523 0 140 2.50721 140 5.6V36.4C140 39.4928 137.523 42 134.466 42H5.5336C2.47748 42 0 39.4928 0 36.4ZM0.830039 36.4V5.6C0.830039 2.97112 2.93589 0.84 5.5336 0.84H134.466C137.064 0.84 139.17 2.97112 139.17 5.6V36.4C139.17 39.0289 137.064 41.16 134.466 41.16H5.5336C2.93589 41.16 0.830039 39.0289 0.830039 36.4Z" fill="white" fill-opacity="0.3"/>
<path d="M31.6368 21.8553C31.6226 19.3937 32.7246 17.5385 34.9502 16.1705C33.7054 14.3658 31.8223 13.3733 29.34 13.182C26.9896 12.9943 24.4181 14.568 23.4765 14.568C22.4814 14.568 20.206 13.2469 18.4155 13.2469C14.7206 13.3047 10.7938 16.2283 10.7938 22.1765C10.7938 23.9343 11.1112 25.7498 11.746 27.6195C12.5949 30.0811 15.655 36.1123 18.8471 36.0149C20.5162 35.9752 21.6968 34.8166 23.8688 34.8166C25.9767 34.8166 27.068 36.0149 28.9298 36.0149C32.1504 35.9679 34.9181 30.4853 35.7241 28.0165C31.405 25.9555 31.6368 21.9816 31.6368 21.8553ZM27.8884 10.8467C29.6966 8.67385 29.5326 6.69591 29.4791 5.98486C27.8812 6.07871 26.0337 7.08572 24.9816 8.32374C23.8225 9.65199 23.1412 11.2943 23.2875 13.1459C25.0137 13.2794 26.5901 12.3807 27.8884 10.8467Z" fill="white"/>
<path d="M51.1177 30.3935H49.2859L48.2825 27.1878H44.7946L43.8388 30.3935H42.0554L45.5109 19.4798H47.6452L51.1177 30.3935ZM47.98 25.8429L47.0725 22.9931C46.9765 22.7019 46.7967 22.0164 46.5313 20.9371H46.499C46.3934 21.4013 46.2232 22.0869 45.9892 22.9931L45.0979 25.8429H47.98Z" fill="white"/>
<path d="M60.0042 26.362C60.0042 27.7004 59.6485 28.7583 58.9371 29.5349C58.2998 30.2263 57.5085 30.5715 56.564 30.5715C55.5444 30.5715 54.812 30.1992 54.366 29.4546H54.3337V33.6001H52.614V25.1147C52.614 24.2733 52.5922 23.4097 52.5503 22.524H54.0627L54.1587 23.7714H54.1909C54.7644 22.8316 55.6348 22.3625 56.8028 22.3625C57.7158 22.3625 58.4781 22.7291 59.0879 23.463C59.6993 24.1978 60.0042 25.1639 60.0042 26.362ZM58.2522 26.426C58.2522 25.66 58.0829 25.0286 57.7425 24.5316C57.3706 24.0133 56.8713 23.7542 56.2454 23.7542C55.8211 23.7542 55.4355 23.8985 55.0911 24.1831C54.7459 24.4701 54.52 24.8449 54.4144 25.309C54.3611 25.5255 54.3345 25.7027 54.3345 25.8421V27.1542C54.3345 27.7266 54.5071 28.2097 54.8523 28.6041C55.1976 28.9986 55.6461 29.1954 56.1978 29.1954C56.8455 29.1954 57.3496 28.9412 57.7102 28.4344C58.0716 27.9267 58.2522 27.2576 58.2522 26.426Z" fill="white"/>
<path d="M68.9072 26.362C68.9072 27.7004 68.5514 28.7583 67.8392 29.5349C67.2028 30.2263 66.4115 30.5715 65.4669 30.5715C64.4474 30.5715 63.715 30.1992 63.2697 29.4546H63.2374V33.6001H61.5177V25.1147C61.5177 24.2733 61.496 23.4097 61.454 22.524H62.9664L63.0624 23.7714H63.0947C63.6674 22.8316 64.5377 22.3625 65.7065 22.3625C66.6188 22.3625 67.381 22.7291 67.9925 23.463C68.6015 24.1978 68.9072 25.1639 68.9072 26.362ZM67.1552 26.426C67.1552 25.66 66.985 25.0286 66.6446 24.5316C66.2727 24.0133 65.7751 23.7542 65.1483 23.7542C64.7232 23.7542 64.3385 23.8985 63.9932 24.1831C63.648 24.4701 63.423 24.8449 63.3173 25.309C63.2649 25.5255 63.2374 25.7027 63.2374 25.8421V27.1542C63.2374 27.7266 63.4101 28.2097 63.7537 28.6041C64.0989 28.9978 64.5474 29.1954 65.1007 29.1954C65.7484 29.1954 66.2526 28.9412 66.6131 28.4344C66.9745 27.9267 67.1552 27.2576 67.1552 26.426Z" fill="white"/>
<path d="M78.861 27.3331C78.861 28.2614 78.544 29.0167 77.9076 29.5998C77.2082 30.237 76.2346 30.5552 74.9836 30.5552C73.8285 30.5552 72.9025 30.3288 72.2015 29.8753L72.6 28.4181C73.355 28.8822 74.1834 29.1151 75.086 29.1151C75.7337 29.1151 76.2379 28.9659 76.6 28.669C76.9606 28.3721 77.1405 27.9736 77.1405 27.4766C77.1405 27.0338 76.992 26.6606 76.6944 26.358C76.3984 26.0554 75.9039 25.7741 75.2135 25.5141C73.334 24.8015 72.3951 23.7575 72.3951 22.3847C72.3951 21.4875 72.7242 20.7519 73.3832 20.1795C74.0398 19.6063 74.9158 19.3201 76.0112 19.3201C76.988 19.3201 77.7995 19.4931 78.4472 19.8384L78.0173 21.2637C77.4123 20.9291 76.7283 20.7618 75.9628 20.7618C75.3578 20.7618 74.8852 20.9135 74.5464 21.2153C74.26 21.4851 74.1165 21.8139 74.1165 22.2035C74.1165 22.6348 74.2802 22.9916 74.6093 23.272C74.8956 23.5312 75.4159 23.8117 76.1709 24.1143C77.0945 24.4923 77.7729 24.9343 78.2092 25.4412C78.644 25.9463 78.861 26.5786 78.861 27.3331Z" fill="white"/>
<path d="M84.5466 23.8363H82.651V27.6571C82.651 28.6289 82.985 29.1144 83.6544 29.1144C83.9618 29.1144 84.2167 29.0873 84.4183 29.0332L84.4659 30.3609C84.1271 30.4897 83.6811 30.5544 83.1285 30.5544C82.4494 30.5544 81.9186 30.3437 81.5355 29.923C81.1539 29.5015 80.9619 28.7946 80.9619 27.8014V23.8347H79.8327V22.5226H80.9619V21.0817L82.651 20.5634V22.5226H84.5466V23.8363Z" fill="white"/>
<path d="M93.0992 26.394C93.0992 27.6036 92.7588 28.5968 92.0797 29.3734C91.3674 30.173 90.4221 30.5715 89.2436 30.5715C88.1079 30.5715 87.2037 30.1885 86.5293 29.4226C85.855 28.6566 85.5178 27.6897 85.5178 26.5244C85.5178 25.3049 85.8647 24.3061 86.5608 23.5295C87.2553 22.752 88.1926 22.3633 89.371 22.3633C90.5068 22.3633 91.4207 22.7463 92.1103 23.5131C92.7701 24.2569 93.0992 25.2172 93.0992 26.394ZM91.315 26.4506C91.315 25.7248 91.1625 25.1024 90.8536 24.5833C90.493 23.9551 89.9776 23.6418 89.3097 23.6418C88.6185 23.6418 88.0934 23.9559 87.7328 24.5833C87.4239 25.1032 87.2714 25.7355 87.2714 26.4834C87.2714 27.2092 87.4239 27.8316 87.7328 28.3499C88.1047 28.9781 88.6241 29.2914 89.2944 29.2914C89.951 29.2914 90.4664 28.9715 90.8383 28.3335C91.1553 27.8046 91.315 27.1756 91.315 26.4506Z" fill="white"/>
<path d="M98.689 24.0617C98.5188 24.0297 98.3373 24.0133 98.1469 24.0133C97.542 24.0133 97.0741 24.2454 96.745 24.7104C96.4587 25.1204 96.3151 25.6387 96.3151 26.2644V30.3935H94.5962L94.6123 25.0023C94.6123 24.0953 94.5905 23.2695 94.5478 22.5249H96.0457L96.1086 24.0305H96.1562C96.3377 23.5131 96.624 23.0965 97.016 22.784C97.3992 22.5027 97.813 22.3625 98.259 22.3625C98.4179 22.3625 98.5615 22.374 98.689 22.3945V24.0617Z" fill="white"/>
<path d="M106.38 26.0865C106.38 26.3998 106.359 26.6639 106.317 26.8796H101.158C101.178 27.657 101.427 28.2515 101.906 28.6616C102.341 29.0282 102.903 29.2119 103.594 29.2119C104.357 29.2119 105.054 29.088 105.681 28.8395L105.951 30.0533C105.218 30.378 104.353 30.5396 103.356 30.5396C102.155 30.5396 101.213 30.1804 100.528 29.4628C99.8436 28.7452 99.5008 27.7816 99.5008 26.5728C99.5008 25.3862 99.8194 24.398 100.457 23.6099C101.125 22.7685 102.028 22.3478 103.164 22.3478C104.279 22.3478 105.124 22.7685 105.697 23.6099C106.151 24.2783 106.38 25.1049 106.38 26.0865ZM104.74 25.633C104.751 25.1147 104.639 24.667 104.406 24.2889C104.108 23.8026 103.651 23.5599 103.035 23.5599C102.473 23.5599 102.016 23.7969 101.667 24.2725C101.38 24.6506 101.21 25.1041 101.158 25.6322H104.74V25.633Z" fill="white"/>
<path d="M47.6299 12.1407C47.6299 13.3204 47.2819 14.2084 46.5869 14.8048C45.9431 15.355 45.0283 15.6306 43.8433 15.6306C43.2558 15.6306 42.753 15.6046 42.332 15.5525V9.10681C42.8811 9.01661 43.4726 8.9705 44.1114 8.9705C45.2402 8.9705 46.091 9.22007 46.6647 9.71921C47.3075 10.2835 47.6299 11.0903 47.6299 12.1407ZM46.5405 12.1698C46.5405 11.405 46.3414 10.8187 45.9431 10.4098C45.5448 10.0018 44.9632 9.79738 44.1972 9.79738C43.8719 9.79738 43.5949 9.81943 43.3652 9.86554V14.7657C43.4923 14.7857 43.725 14.7947 44.0631 14.7947C44.8538 14.7947 45.464 14.5712 45.8938 14.1242C46.3236 13.6772 46.5405 13.0257 46.5405 12.1698Z" fill="white"/>
<path d="M53.4059 13.1712C53.4059 13.8979 53.2018 14.4932 52.7937 14.9603C52.3658 15.4404 51.799 15.6799 51.0912 15.6799C50.409 15.6799 49.8658 15.4504 49.4606 14.9894C49.0564 14.5293 48.8543 13.949 48.8543 13.2494C48.8543 12.5177 49.0623 11.9174 49.4803 11.4513C49.8983 10.9853 50.4602 10.7517 51.1681 10.7517C51.8502 10.7517 52.3984 10.9812 52.8134 11.4413C53.2077 11.8883 53.4059 12.4656 53.4059 13.1712ZM52.3343 13.2053C52.3343 12.7693 52.2416 12.3955 52.0573 12.0838C51.8404 11.7069 51.5318 11.5185 51.1306 11.5185C50.7156 11.5185 50.4001 11.7069 50.1832 12.0838C49.9979 12.3955 49.9062 12.7753 49.9062 13.2243C49.9062 13.6603 49.9989 14.0342 50.1832 14.3459C50.407 14.7228 50.7185 14.9112 51.1207 14.9112C51.5151 14.9112 51.8246 14.7197 52.0474 14.3359C52.2387 14.0182 52.3343 13.6413 52.3343 13.2053Z" fill="white"/>
<path d="M61.1508 10.8479L59.6967 15.5726H58.7503L58.148 13.521C57.9952 13.0088 57.871 12.4996 57.7743 11.9945H57.7556C57.6659 12.5137 57.5417 13.0218 57.382 13.521L56.7422 15.5726H55.785L54.4176 10.8479H55.4794L56.0048 13.094C56.132 13.6252 56.2365 14.1314 56.3203 14.6104H56.339C56.4159 14.2155 56.5431 13.7124 56.7225 13.104L57.382 10.8489H58.2239L58.8558 13.0559C59.0086 13.5941 59.1328 14.1123 59.2284 14.6114H59.257C59.327 14.1253 59.4325 13.6072 59.5725 13.0559L60.1364 10.8489H61.1508V10.8479Z" fill="white"/>
<path d="M66.5064 15.5727H65.4733V12.8665C65.4733 12.0326 65.1618 11.6157 64.5367 11.6157C64.2302 11.6157 63.9827 11.7299 63.7905 11.9594C63.6002 12.189 63.5036 12.4596 63.5036 12.7693V15.5717H62.4705V12.198C62.4705 11.783 62.4576 11.333 62.433 10.8459H63.3409L63.3893 11.5846H63.4178C63.5381 11.3551 63.7175 11.1656 63.9531 11.0143C64.2331 10.8379 64.5466 10.7487 64.8897 10.7487C65.3234 10.7487 65.6842 10.891 65.9711 11.1767C66.328 11.5265 66.5064 12.0486 66.5064 12.7422V15.5727Z" fill="white"/>
<path d="M69.3553 15.5726H68.3231V8.67993H69.3553V15.5726Z" fill="white"/>
<path d="M75.4378 13.1712C75.4378 13.8979 75.2338 14.4932 74.8256 14.9603C74.3978 15.4404 73.83 15.6799 73.1231 15.6799C72.4399 15.6799 71.8967 15.4504 71.4926 14.9894C71.0884 14.5293 70.8863 13.949 70.8863 13.2494C70.8863 12.5177 71.0943 11.9174 71.5123 11.4513C71.9303 10.9853 72.4922 10.7517 73.199 10.7517C73.8822 10.7517 74.4293 10.9812 74.8453 11.4413C75.2397 11.8883 75.4378 12.4656 75.4378 13.1712ZM74.3653 13.2053C74.3653 12.7693 74.2726 12.3955 74.0882 12.0838C73.8723 11.7069 73.5628 11.5185 73.1625 11.5185C72.7465 11.5185 72.4311 11.7069 72.2152 12.0838C72.0298 12.3955 71.9382 12.7753 71.9382 13.2243C71.9382 13.6603 72.0308 14.0342 72.2152 14.3459C72.439 14.7228 72.7505 14.9112 73.1527 14.9112C73.547 14.9112 73.8556 14.7197 74.0784 14.3359C74.2706 14.0182 74.3653 13.6413 74.3653 13.2053Z" fill="white"/>
<path d="M80.438 15.5727H79.5103L79.4334 15.0284H79.4049C79.0874 15.4624 78.6349 15.6799 78.0474 15.6799C77.6087 15.6799 77.2538 15.5366 76.9866 15.252C76.7441 14.9934 76.6229 14.6716 76.6229 14.2898C76.6229 13.7125 76.8595 13.2725 77.3356 12.9678C77.8108 12.6631 78.4792 12.5137 79.3398 12.5207V12.4325C79.3398 11.8101 79.0184 11.4994 78.3747 11.4994C77.9163 11.4994 77.5121 11.6167 77.1631 11.8492L76.9531 11.1597C77.3849 10.888 77.9182 10.7517 78.5472 10.7517C79.7617 10.7517 80.371 11.4032 80.371 12.7062V14.4461C80.371 14.9182 80.3936 15.2941 80.438 15.5727ZM79.3654 13.949V13.2203C78.2258 13.2003 77.656 13.518 77.656 14.1725C77.656 14.4191 77.7211 14.6035 77.8541 14.7268C77.9872 14.85 78.1568 14.9112 78.3589 14.9112C78.5856 14.9112 78.7976 14.838 78.9908 14.6927C79.185 14.5464 79.3043 14.3609 79.3487 14.1334C79.3595 14.0823 79.3654 14.0202 79.3654 13.949Z" fill="white"/>
<path d="M86.3085 15.5726H85.3916L85.3433 14.8139H85.3148C85.022 15.3912 84.5231 15.6798 83.8222 15.6798C83.2623 15.6798 82.796 15.4563 82.4263 15.0093C82.0566 14.5623 81.8723 13.982 81.8723 13.2694C81.8723 12.5046 82.0724 11.8852 82.4746 11.4121C82.864 10.9711 83.3411 10.7506 83.909 10.7506C84.533 10.7506 84.9697 10.9641 85.2181 11.3921H85.2379V8.67993H86.272V14.2997C86.272 14.7598 86.2838 15.1837 86.3085 15.5726ZM85.2379 13.5801V12.7923C85.2379 12.656 85.228 12.5457 85.2093 12.4615C85.1511 12.209 85.0259 11.9965 84.8356 11.8251C84.6434 11.6537 84.4117 11.5675 84.1446 11.5675C83.7591 11.5675 83.4575 11.7229 83.2356 12.0346C83.0158 12.3463 82.9044 12.7442 82.9044 13.2303C82.9044 13.6973 83.0099 14.0762 83.2218 14.3679C83.4456 14.6786 83.7473 14.8339 84.1249 14.8339C84.464 14.8339 84.7351 14.7046 84.9411 14.445C85.1403 14.2055 85.2379 13.9168 85.2379 13.5801Z" fill="white"/>
<path d="M95.1449 13.1712C95.1449 13.8979 94.9408 14.4932 94.5327 14.9603C94.1048 15.4404 93.539 15.6799 92.8301 15.6799C92.1489 15.6799 91.6058 15.4504 91.1996 14.9894C90.7954 14.5293 90.5933 13.949 90.5933 13.2494C90.5933 12.5177 90.8013 11.9174 91.2193 11.4513C91.6373 10.9853 92.1992 10.7517 92.908 10.7517C93.5892 10.7517 94.1383 10.9812 94.5524 11.4413C94.9467 11.8883 95.1449 12.4656 95.1449 13.1712ZM94.0743 13.2053C94.0743 12.7693 93.9816 12.3955 93.7972 12.0838C93.5794 11.7069 93.2718 11.5185 92.8696 11.5185C92.4555 11.5185 92.1401 11.7069 91.9222 12.0838C91.7369 12.3955 91.6452 12.7753 91.6452 13.2243C91.6452 13.6603 91.7378 14.0342 91.9222 14.3459C92.146 14.7228 92.4575 14.9112 92.8597 14.9112C93.254 14.9112 93.5646 14.7197 93.7874 14.3359C93.9776 14.0182 94.0743 13.6413 94.0743 13.2053Z" fill="white"/>
<path d="M100.7 15.5727H99.6675V12.8665C99.6675 12.0326 99.356 11.6157 98.73 11.6157C98.4234 11.6157 98.176 11.7299 97.9847 11.9594C97.7935 12.189 97.6978 12.4596 97.6978 12.7693V15.5717H96.6637V12.198C96.6637 11.783 96.6519 11.333 96.6272 10.8459H97.5342L97.5825 11.5846H97.6111C97.7323 11.3551 97.9118 11.1656 98.1464 11.0143C98.4274 10.8379 98.7399 10.7487 99.0839 10.7487C99.5167 10.7487 99.8775 10.891 100.164 11.1767C100.522 11.5265 100.7 12.0486 100.7 12.7422V15.5727Z" fill="white"/>
<path d="M107.652 11.6347H106.515V13.9299C106.515 14.5133 106.717 14.8049 107.117 14.8049C107.302 14.8049 107.456 14.7889 107.578 14.7558L107.604 15.5526C107.4 15.6308 107.132 15.6699 106.802 15.6699C106.394 15.6699 106.076 15.5436 105.846 15.291C105.616 15.0385 105.501 14.6135 105.501 14.0171V11.6347H104.822V10.8479H105.501V9.98196L106.514 9.67125V10.8469H107.651V11.6347H107.652Z" fill="white"/>
<path d="M113.122 15.5726H112.088V12.8865C112.088 12.0396 111.776 11.6156 111.152 11.6156C110.673 11.6156 110.346 11.8612 110.167 12.3523C110.136 12.4555 110.118 12.5818 110.118 12.7301V15.5716H109.086V8.67993H110.118V11.5274H110.138C110.463 11.0092 110.93 10.7506 111.534 10.7506C111.962 10.7506 112.316 10.893 112.597 11.1786C112.947 11.5344 113.122 12.0636 113.122 12.7632V15.5726Z" fill="white"/>
<path d="M118.764 12.9867C118.764 13.1752 118.751 13.3335 118.726 13.4628H115.628C115.641 13.9299 115.789 14.2857 116.076 14.5322C116.338 14.7527 116.677 14.863 117.091 14.863C117.549 14.863 117.967 14.7888 118.344 14.6395L118.505 15.3691C118.065 15.5636 117.546 15.6608 116.946 15.6608C116.226 15.6608 115.659 15.4453 115.249 15.0143C114.837 14.5834 114.633 14.005 114.633 13.2794C114.633 12.5668 114.823 11.9734 115.207 11.5003C115.607 10.9952 116.148 10.7426 116.831 10.7426C117.5 10.7426 118.007 10.9952 118.35 11.5003C118.627 11.9013 118.764 12.3974 118.764 12.9867ZM117.779 12.7151C117.787 12.4034 117.719 12.1348 117.579 11.9083C117.399 11.6166 117.126 11.4703 116.756 11.4703C116.419 11.4703 116.144 11.6126 115.934 11.8983C115.763 12.1258 115.661 12.3974 115.628 12.7151H117.779Z" fill="white"/>
</g>
<defs>
<clipPath id="clip0_1_214">
<rect width="140" height="42" fill="white"/>
</clipPath>
</defs>
</svg>
