<svg style="position: absolute; width: 0; height: 0;" width="0" height="0" version="1.1"
     xmlns="http://www.w3.org/2000/svg" xmlns:xlink="http://www.w3.org/1999/xlink">

    <defs>

        <symbol id="logo" viewBox="0 0 215 50">
            <path fill-rule="evenodd" clip-rule="evenodd" d="M63.8004 18.2484C63.8004 15.8617 65.8604 13.997 69.0924 13.997C71.6496 13.997 73.9582 14.8548 76.2668 16.8313L77.9006 14.5564C75.3789 12.4307 72.7862 11.3492 69.1634 11.3492C64.4397 11.3492 60.9945 14.3327 60.9945 18.5095C60.9945 22.8354 63.6228 24.7747 69.341 26.0799C74.562 27.236 75.8051 28.6158 75.8051 31.0771C75.8051 33.7249 73.6031 35.5523 70.2645 35.5523C66.8193 35.5523 64.3331 34.3216 61.7404 31.8603L60.0001 34.0233C62.9835 36.8202 66.2155 38.2001 70.1579 38.2001C75.0948 38.2001 78.6465 35.2912 78.6465 30.7788C78.6465 26.7512 76.0892 24.6255 70.5486 23.3575C65.079 22.1269 63.8004 20.747 63.8004 18.2484V18.2484ZM108.525 33.6876L106.678 31.7857C104.298 34.1724 102.061 35.5523 98.651 35.5523C93.1814 35.5523 89.0259 30.8161 89.0259 24.7374C89.0259 18.6586 93.1459 13.997 98.651 13.997C102.025 13.997 104.369 15.4887 106.465 17.5771L108.383 15.4142C105.896 12.9528 103.197 11.2747 98.6865 11.2747C91.37 11.2747 86.1135 17.3534 86.1135 24.812C86.1135 32.3451 91.4055 38.2747 98.5799 38.2747C103.091 38.2747 105.932 36.4473 108.525 33.6876V33.6876ZM137.373 37.8271H133.928L126.718 27.6835H119.614V37.8271H116.809V11.7222H127.499C132.969 11.7222 136.485 14.8175 136.485 19.5164C136.485 23.8796 133.644 26.4155 129.737 27.1614L137.373 37.8271ZM133.644 19.6283C133.644 16.3838 131.3 14.4445 127.286 14.4445H119.614V25.0357H127.251C130.98 25.0357 133.644 23.0219 133.644 19.6283ZM147.81 11.7222V37.8271H150.616V11.7222H147.81ZM171.632 11.7222C176.534 11.7222 179.73 14.2581 179.73 18.2484C179.73 21.6794 177.741 23.4321 175.788 24.3271C178.736 25.2595 181.115 27.0495 181.115 30.6669C181.115 35.1794 177.528 37.8271 172.094 37.8271H161.048V11.7222H171.632ZM171.179 23.3575C174.553 23.3575 176.897 21.7539 176.897 18.6586C176.897 16.0481 174.944 14.37 171.392 14.37H163.827V23.3575H171.179ZM172.173 35.1794C175.938 35.1794 178.282 33.4266 178.282 30.4805C178.282 27.6089 176.009 25.968 171.676 25.968H163.827V35.1794H172.173ZM211.034 24.812C211.034 18.9943 207.021 14.4445 200.734 14.4445H194.909V35.1048H200.734C207.021 35.1048 211.034 30.6296 211.034 24.812ZM213.947 24.7374C213.947 32.1213 208.548 37.8271 200.734 37.8271H192.104V11.7222H200.734C208.548 11.7222 213.947 17.3534 213.947 24.7374Z" fill="black"/>
			<path fill-rule="evenodd" clip-rule="evenodd" d="M4.25371 24.6096C5.86745 26.6214 7.98743 27.627 10.611 27.627C12.8071 27.627 14.5354 26.9288 15.7973 25.5319C17.0584 24.1354 17.6899 22.4633 17.6899 20.5154C17.6899 18.5167 17.0769 16.9468 15.8533 15.8066C14.6297 14.6661 13.3243 14.0958 11.9368 14.0958C11.5078 14.0958 10.9394 14.1726 10.233 14.3267C9.5516 14.5058 9.09794 14.5954 8.87054 14.5954C7.86068 14.5954 7.35707 13.9551 7.35707 12.6735C7.35707 10.5207 8.37904 8.6696 10.4222 7.1186C11.02 6.66552 11.6338 6.27316 12.2596 5.93422C14.0564 5.07955 16.195 4.61072 18.5927 4.61072C23.2106 4.61072 27.3594 5.88003 30.9547 8.3883L28.2514 12.4696L32.0003 15.0697L37.0842 7.44794L35.4985 6.10676C30.7076 2.05442 25.0196 0 18.5927 0C8.68249 0 1.76141 6.38076 1.76141 15.5177V15.6426C1.77768 15.8174 1.77125 15.9907 1.77125 16.1686C1.77125 19.7564 2.63847 22.5978 4.25371 24.6096V24.6096Z" fill="black"/>
			<path fill-rule="evenodd" clip-rule="evenodd" d="M24.6695 24.3173C23.4084 25.7138 22.7769 27.3863 22.7769 29.3339C22.7769 31.3325 23.3899 32.9024 24.6135 34.0426C25.8367 35.1831 27.1425 35.753 28.5303 35.753C28.959 35.753 29.5273 35.677 30.2337 35.5225C30.9152 35.3434 31.3688 35.2539 31.5966 35.2539C32.6061 35.2539 33.1097 35.8941 33.1097 37.1757C33.1097 37.6376 33.0598 38.0845 32.9655 38.5184C31.2852 42.8432 26.9787 45.315 20.7481 45.315C15.457 45.315 10.3839 43.5484 6.25099 40.303L9.64581 36.1432L6.10922 33.2522L0 40.8372L1.55395 42.2987C6.7826 47.2168 13.5992 49.9257 20.7481 49.9257C21.5449 49.9257 22.3179 49.8865 23.0713 49.8181C27.1875 49.6244 31.2935 48.0085 34.1888 45.2677C37.1533 42.4616 38.6354 38.5845 38.6354 33.6391C38.6354 30.0513 37.8283 27.2514 36.2131 25.24C34.5993 23.2279 32.4793 22.2222 29.8558 22.2222C27.6597 22.2222 25.9313 22.9204 24.6695 24.3173V24.3173Z" fill="black"/>
        </symbol>

        <symbol id="ico-books" viewBox="0 0 32 32" fill="none">
            <g clip-path="url(#clip0_1_264)">
                <path d="M2 5.65588C3.77 4.91588 6.308 4.11788 8.776 3.86988C11.436 3.60188 13.692 3.99588 15 5.37388V24.8659C13.13 23.8059 10.76 23.6599 8.574 23.8799C6.214 24.1199 3.834 24.8019 2 25.5019V5.65588ZM17 5.37388C18.308 3.99588 20.564 3.60188 23.224 3.86988C25.692 4.11788 28.23 4.91588 30 5.65588V25.5019C28.164 24.8019 25.786 24.1179 23.426 23.8819C21.238 23.6599 18.87 23.8039 17 24.8659V5.37388ZM16 3.56588C14.03 1.87188 11.174 1.61988 8.574 1.87988C5.546 2.18588 2.49 3.22388 0.586 4.08988C0.411298 4.16934 0.263151 4.29739 0.159242 4.45875C0.0553334 4.62011 5.31428e-05 4.80796 0 4.99988L0 26.9999C4.6324e-05 27.1672 0.0420743 27.3318 0.122234 27.4787C0.202394 27.6256 0.318123 27.75 0.458822 27.8405C0.59952 27.9311 0.760689 27.9849 0.927567 27.997C1.09444 28.0091 1.2617 27.9792 1.414 27.9099C3.178 27.1099 6.02 26.1479 8.774 25.8699C11.592 25.5859 13.954 26.0439 15.22 27.6239C15.3137 27.7407 15.4324 27.8349 15.5674 27.8997C15.7024 27.9645 15.8503 27.9981 16 27.9981C16.1497 27.9981 16.2976 27.9645 16.4326 27.8997C16.5676 27.8349 16.6863 27.7407 16.78 27.6239C18.046 26.0439 20.408 25.5859 23.224 25.8699C25.98 26.1479 28.824 27.1099 30.586 27.9099C30.7383 27.9792 30.9056 28.0091 31.0724 27.997C31.2393 27.9849 31.4005 27.9311 31.5412 27.8405C31.6819 27.75 31.7976 27.6256 31.8778 27.4787C31.9579 27.3318 32 27.1672 32 26.9999V4.99988C31.9999 4.80796 31.9447 4.62011 31.8408 4.45875C31.7368 4.29739 31.5887 4.16934 31.414 4.08988C29.51 3.22388 26.454 2.18588 23.426 1.87988C20.826 1.61788 17.97 1.87188 16 3.56588Z" fill="white"/>
            </g>
            <defs>
                <clipPath id="clip0_1_264">
                <rect width="32" height="32" fill="white"/>
                </clipPath>
            </defs>
        </symbol>

        <symbol id="ico-documents" viewBox="0 0 32 31" fill="none">
            <g clip-path="url(#clip0_1_281)">
            <path d="M1.42306 26.3529H18.3529C19.1313 26.3529 19.7647 25.7195 19.7647 24.9412V7.05882C19.7647 7.03718 19.7553 7.01835 19.7525 6.99765C19.7498 6.97792 19.7458 6.95841 19.7402 6.93929C19.7218 6.85908 19.6821 6.78529 19.6254 6.72565L13.0381 0.138353C12.9635 0.067839 12.8681 0.0232799 12.7661 0.0112941C12.7464 0.00941176 12.7275 0 12.7059 0H1.41741C0.636235 0 0 0.633412 0 1.41176V24.9412C0 25.7195 0.638118 26.3529 1.42306 26.3529ZM13.1765 1.60659L18.1581 6.58824H13.6471C13.5223 6.58824 13.4026 6.53866 13.3143 6.4504C13.2261 6.36215 13.1765 6.24246 13.1765 6.11765V1.60659ZM0.941176 1.41176C0.941176 1.152 1.15482 0.941176 1.41741 0.941176H12.2353V6.11765C12.2353 6.896 12.8687 7.52941 13.6471 7.52941H18.8235V24.9412C18.8235 25.066 18.774 25.1857 18.6857 25.2739C18.5974 25.3622 18.4777 25.4118 18.3529 25.4118H1.42306C1.36052 25.4125 1.29844 25.4009 1.24038 25.3777C1.18231 25.3544 1.12939 25.32 1.08465 25.2763C1.0399 25.2326 1.0042 25.1805 0.97958 25.123C0.954963 25.0655 0.941914 25.0037 0.941176 24.9412V1.41176Z" fill="white"/>
            <path d="M4.2353 11.2941H15.5294C15.6542 11.2941 15.7739 11.2445 15.8622 11.1562C15.9504 11.068 16 10.9483 16 10.8235C16 10.6987 15.9504 10.579 15.8622 10.4907C15.7739 10.4025 15.6542 10.3529 15.5294 10.3529H4.2353C4.11049 10.3529 3.99079 10.4025 3.90254 10.4907C3.81429 10.579 3.76471 10.6987 3.76471 10.8235C3.76471 10.9483 3.81429 11.068 3.90254 11.1562C3.99079 11.2445 4.11049 11.2941 4.2353 11.2941Z" fill="white"/>
            <path d="M4.2353 15.0589H15.5294C15.6542 15.0589 15.7739 15.0093 15.8622 14.921C15.9504 14.8328 16 14.7131 16 14.5883C16 14.4635 15.9504 14.3438 15.8622 14.2555C15.7739 14.1673 15.6542 14.1177 15.5294 14.1177H4.2353C4.11049 14.1177 3.99079 14.1673 3.90254 14.2555C3.81429 14.3438 3.76471 14.4635 3.76471 14.5883C3.76471 14.7131 3.81429 14.8328 3.90254 14.921C3.99079 15.0093 4.11049 15.0589 4.2353 15.0589Z" fill="white"/>
            <path d="M4.2353 7.52943H8.94118C9.06599 7.52943 9.18568 7.47985 9.27394 7.3916C9.36219 7.30335 9.41177 7.18365 9.41177 7.05885C9.41177 6.93404 9.36219 6.81434 9.27394 6.72609C9.18568 6.63784 9.06599 6.58826 8.94118 6.58826H4.2353C4.11049 6.58826 3.99079 6.63784 3.90254 6.72609C3.81429 6.81434 3.76471 6.93404 3.76471 7.05885C3.76471 7.18365 3.81429 7.30335 3.90254 7.3916C3.99079 7.47985 4.11049 7.52943 4.2353 7.52943Z" fill="white"/>
            <path d="M4.2353 18.8235H15.5294C15.6542 18.8235 15.7739 18.7739 15.8622 18.6857C15.9504 18.5974 16 18.4777 16 18.3529C16 18.2281 15.9504 18.1084 15.8622 18.0202C15.7739 17.9319 15.6542 17.8823 15.5294 17.8823H4.2353C4.11049 17.8823 3.99079 17.9319 3.90254 18.0202C3.81429 18.1084 3.76471 18.2281 3.76471 18.3529C3.76471 18.4777 3.81429 18.5974 3.90254 18.6857C3.99079 18.7739 4.11049 18.8235 4.2353 18.8235Z" fill="white"/>
            <path d="M4.2353 22.5883H15.5294C15.6542 22.5883 15.7739 22.5387 15.8622 22.4504C15.9504 22.3622 16 22.2425 16 22.1177C16 21.9929 15.9504 21.8732 15.8622 21.7849C15.7739 21.6967 15.6542 21.6471 15.5294 21.6471H4.2353C4.11049 21.6471 3.99079 21.6967 3.90254 21.7849C3.81429 21.8732 3.76471 21.9929 3.76471 22.1177C3.76471 22.2425 3.81429 22.3622 3.90254 22.4504C3.99079 22.5387 4.11049 22.5883 4.2353 22.5883Z" fill="white"/>
            <path d="M20.2353 4.70582H24.4706V9.8823C24.4706 10.6606 25.104 11.2941 25.8823 11.2941H31.0588V28.7058C31.0588 28.8306 31.0092 28.9503 30.921 29.0386C30.8327 29.1268 30.713 29.1764 30.5882 29.1764H13.6583C13.5958 29.1772 13.5337 29.1656 13.4757 29.1423C13.4176 29.1191 13.3647 29.0846 13.3199 29.0409C13.2752 28.9972 13.2395 28.9451 13.2149 28.8876C13.1903 28.8301 13.1772 28.7684 13.1765 28.7058V27.7646C13.1765 27.6398 13.1269 27.5201 13.0386 27.4319C12.9504 27.3436 12.8307 27.2941 12.7059 27.2941C12.5811 27.2941 12.4614 27.3436 12.3731 27.4319C12.2849 27.5201 12.2353 27.6398 12.2353 27.7646V28.7058C12.2353 29.4842 12.8734 30.1176 13.6583 30.1176H30.5882C31.3666 30.1176 32 29.4842 32 28.7058V10.8235C32 10.8018 31.9906 10.783 31.9878 10.7623C31.9851 10.7426 31.981 10.7231 31.9755 10.7039C31.9571 10.6237 31.9174 10.5499 31.8607 10.4903L25.2734 3.903C25.1993 3.8319 25.1036 3.78753 25.0014 3.77688C24.9816 3.77406 24.9628 3.76465 24.9412 3.76465H20.2353C20.1105 3.76465 19.9908 3.81423 19.9025 3.90248C19.8143 3.99073 19.7647 4.11043 19.7647 4.23524C19.7647 4.36004 19.8143 4.47974 19.9025 4.56799C19.9908 4.65625 20.1105 4.70582 20.2353 4.70582ZM25.8823 10.3529C25.7575 10.3529 25.6378 10.3033 25.5496 10.2151C25.4613 10.1268 25.4118 10.0071 25.4118 9.8823V5.37124L30.3934 10.3529H25.8823Z" fill="white"/>
            <path d="M22.1177 15.0589H27.7647C27.8895 15.0589 28.0092 15.0093 28.0975 14.921C28.1857 14.8328 28.2353 14.7131 28.2353 14.5883C28.2353 14.4635 28.1857 14.3438 28.0975 14.2555C28.0092 14.1673 27.8895 14.1177 27.7647 14.1177H22.1177C21.9928 14.1177 21.8731 14.1673 21.7849 14.2555C21.6966 14.3438 21.6471 14.4635 21.6471 14.5883C21.6471 14.7131 21.6966 14.8328 21.7849 14.921C21.8731 15.0093 21.9928 15.0589 22.1177 15.0589Z" fill="white"/>
            <path d="M22.1177 18.8235H27.7647C27.8895 18.8235 28.0092 18.7739 28.0975 18.6857C28.1857 18.5974 28.2353 18.4777 28.2353 18.3529C28.2353 18.2281 28.1857 18.1084 28.0975 18.0202C28.0092 17.9319 27.8895 17.8823 27.7647 17.8823H22.1177C21.9928 17.8823 21.8731 17.9319 21.7849 18.0202C21.6966 18.1084 21.6471 18.2281 21.6471 18.3529C21.6471 18.4777 21.6966 18.5974 21.7849 18.6857C21.8731 18.7739 21.9928 18.8235 22.1177 18.8235Z" fill="white"/>
            <path d="M22.1177 22.5883H27.7647C27.8895 22.5883 28.0092 22.5387 28.0975 22.4504C28.1857 22.3622 28.2353 22.2425 28.2353 22.1177C28.2353 21.9929 28.1857 21.8732 28.0975 21.7849C28.0092 21.6967 27.8895 21.6471 27.7647 21.6471H22.1177C21.9928 21.6471 21.8731 21.6967 21.7849 21.7849C21.6966 21.8732 21.6471 21.9929 21.6471 22.1177C21.6471 22.2425 21.6966 22.3622 21.7849 22.4504C21.8731 22.5387 21.9928 22.5883 22.1177 22.5883Z" fill="white"/>
            <path d="M22.1177 26.3529H27.7647C27.8895 26.3529 28.0092 26.3033 28.0975 26.2151C28.1857 26.1268 28.2353 26.0071 28.2353 25.8823C28.2353 25.7575 28.1857 25.6378 28.0975 25.5496C28.0092 25.4613 27.8895 25.4117 27.7647 25.4117H22.1177C21.9928 25.4117 21.8731 25.4613 21.7849 25.5496C21.6966 25.6378 21.6471 25.7575 21.6471 25.8823C21.6471 26.0071 21.6966 26.1268 21.7849 26.2151C21.8731 26.3033 21.9928 26.3529 22.1177 26.3529Z" fill="white"/>
            </g>
            <defs>
            <clipPath id="clip0_1_281">
            <rect width="32" height="30.1176" fill="white"/>
            </clipPath>
            </defs>
        </symbol>

        <symbol id="ico-music" viewBox="0 0 32 32" fill="none">
            <path d="M16 2.66663C12.642 2.72973 9.44601 4.12207 7.11312 6.53829C4.78022 8.9545 3.50084 12.1973 3.55556 15.5555V27.5555H8.17779C8.82228 27.5698 9.44616 27.3281 9.91269 26.8832C10.3792 26.4383 10.6504 25.8266 10.6667 25.1822V19.2622C10.6504 18.6177 10.3792 18.006 9.91269 17.5612C9.44616 17.1163 8.82228 16.8745 8.17779 16.8888H5.33334V15.5555C5.27853 12.6688 6.3706 9.87809 8.37011 7.79526C10.3696 5.71243 13.1134 4.50742 16 4.4444C18.8866 4.50742 21.6304 5.71243 23.6299 7.79526C25.6294 9.87809 26.7215 12.6688 26.6667 15.5555V16.8888H23.8222C23.1777 16.8745 22.5539 17.1163 22.0873 17.5612C21.6208 18.006 21.3497 18.6177 21.3333 19.2622V25.1911C21.352 25.834 21.6241 26.4434 22.0904 26.8863C22.5567 27.3293 23.1792 27.5699 23.8222 27.5555H28.4445V15.5555C28.4992 12.1973 27.2198 8.9545 24.8869 6.53829C22.554 4.12207 19.3581 2.72973 16 2.66663ZM8.17779 18.6666C8.35044 18.6541 8.52118 18.7093 8.6539 18.8205C8.78661 18.9316 8.87088 19.09 8.8889 19.2622V25.1911C8.87088 25.3632 8.78661 25.5216 8.6539 25.6328C8.52118 25.7439 8.35044 25.7991 8.17779 25.7866H5.33334V18.6666H8.17779ZM23.1111 25.1822V19.2622C23.1291 19.09 23.2134 18.9316 23.3461 18.8205C23.4788 18.7093 23.6496 18.6541 23.8222 18.6666H26.6667V25.7777H23.8222C23.6496 25.7902 23.4788 25.7351 23.3461 25.6239C23.2134 25.5128 23.1291 25.3543 23.1111 25.1822Z" fill="white"/>
        </symbol>

        <symbol id="ico-podcast" viewBox="0 0 32 32" fill="none">
            <path d="M10 0H26C27.0609 0 28.0783 0.421427 28.8284 1.17157C29.5786 1.92172 30 2.93913 30 4V24C30 25.0609 29.5786 26.0783 28.8284 26.8284C28.0783 27.5786 27.0609 28 26 28C26 29.0609 25.5786 30.0783 24.8284 30.8284C24.0783 31.5786 23.0609 32 22 32H6C4.93913 32 3.92172 31.5786 3.17157 30.8284C2.42143 30.0783 2 29.0609 2 28H4C4 28.5304 4.21071 29.0391 4.58579 29.4142C4.96086 29.7893 5.46957 30 6 30H22C22.5304 30 23.0391 29.7893 23.4142 29.4142C23.7893 29.0391 24 28.5304 24 28V8C24 7.46957 23.7893 6.96086 23.4142 6.58579C23.0391 6.21071 22.5304 6 22 6H6C5.46957 6 4.96086 6.21071 4.58579 6.58579C4.21071 6.96086 4 7.46957 4 8H2C2 6.93913 2.42143 5.92172 3.17157 5.17157C3.92172 4.42143 4.93913 4 6 4H22C23.0609 4 24.0783 4.42143 24.8284 5.17157C25.5786 5.92172 26 6.93913 26 8V26C26.5304 26 27.0391 25.7893 27.4142 25.4142C27.7893 25.0391 28 24.5304 28 24V4C28 3.46957 27.7893 2.96086 27.4142 2.58579C27.0391 2.21071 26.5304 2 26 2H10C9.46957 2 8.96086 2.21071 8.58579 2.58579C8.21071 2.96086 8 3.46957 8 4H6C6 2.93913 6.42143 1.92172 7.17157 1.17157C7.92172 0.421427 8.93913 0 10 0V0Z" fill="white"/>
            <path d="M2 12V11C2 10.7348 2.10536 10.4804 2.29289 10.2929C2.48043 10.1054 2.73478 10 3 10C3.26522 10 3.51957 10.1054 3.70711 10.2929C3.89464 10.4804 4 10.7348 4 11V12H5C5.26522 12 5.51957 12.1054 5.70711 12.2929C5.89464 12.4804 6 12.7348 6 13C6 13.2652 5.89464 13.5196 5.70711 13.7071C5.51957 13.8946 5.26522 14 5 14H1C0.734784 14 0.48043 13.8946 0.292893 13.7071C0.105357 13.5196 0 13.2652 0 13C0 12.7348 0.105357 12.4804 0.292893 12.2929C0.48043 12.1054 0.734784 12 1 12H2ZM2 18V17C2 16.7348 2.10536 16.4804 2.29289 16.2929C2.48043 16.1054 2.73478 16 3 16C3.26522 16 3.51957 16.1054 3.70711 16.2929C3.89464 16.4804 4 16.7348 4 17V18H5C5.26522 18 5.51957 18.1054 5.70711 18.2929C5.89464 18.4804 6 18.7348 6 19C6 19.2652 5.89464 19.5196 5.70711 19.7071C5.51957 19.8946 5.26522 20 5 20H1C0.734784 20 0.48043 19.8946 0.292893 19.7071C0.105357 19.5196 0 19.2652 0 19C0 18.7348 0.105357 18.4804 0.292893 18.2929C0.48043 18.1054 0.734784 18 1 18H2ZM2 23V24H1C0.734784 24 0.48043 24.1054 0.292893 24.2929C0.105357 24.4804 0 24.7348 0 25C0 25.2652 0.105357 25.5196 0.292893 25.7071C0.48043 25.8946 0.734784 26 1 26H5C5.26522 26 5.51957 25.8946 5.70711 25.7071C5.89464 25.5196 6 25.2652 6 25C6 24.7348 5.89464 24.4804 5.70711 24.2929C5.51957 24.1054 5.26522 24 5 24H4V23C4 22.7348 3.89464 22.4804 3.70711 22.2929C3.51957 22.1054 3.26522 22 3 22C2.73478 22 2.48043 22.1054 2.29289 22.2929C2.10536 22.4804 2 22.7348 2 23Z" fill="white"/>
        </symbol>

        <symbol id="ico-magazines" viewBox="0 0 32 32" fill="none">
            <path d="M16 20.5C17.5908 20.4982 19.1158 19.8655 20.2407 18.7407C21.3655 17.6158 21.9982 16.0908 22 14.5V7C22 5.4087 21.3679 3.88258 20.2426 2.75736C19.1174 1.63214 17.5913 1 16 1C14.4087 1 12.8826 1.63214 11.7574 2.75736C10.6321 3.88258 10 5.4087 10 7V14.5C10.0018 16.0908 10.6345 17.6158 11.7593 18.7407C12.8842 19.8655 14.4092 20.4982 16 20.5ZM12 7C12 5.93913 12.4214 4.92172 13.1716 4.17157C13.9217 3.42143 14.9391 3 16 3C17.0609 3 18.0783 3.42143 18.8284 4.17157C19.5786 4.92172 20 5.93913 20 7V14.5C20 15.5609 19.5786 16.5783 18.8284 17.3284C18.0783 18.0786 17.0609 18.5 16 18.5C14.9391 18.5 13.9217 18.0786 13.1716 17.3284C12.4214 16.5783 12 15.5609 12 14.5V7Z" fill="white"/>
            <path d="M25 11V14.5C25 19.4625 20.9625 23.5 16 23.5C11.0375 23.5 7 19.4625 7 14.5V11H5V14.5C5 20.2283 9.4015 24.9471 15 25.4541V31H17V25.4541C22.5985 24.9471 27 20.2283 27 14.5V11H25Z" fill="white"/>
        </symbol>

        <symbol id="ico-audio" viewBox="0 0 32 32" fill="none">
            <path d="M26.6667 18.6667V4L12 6.66667V21.3333" stroke="white" stroke-width="1.5" stroke-linecap="round" stroke-linejoin="round"/>
            <path d="M22.6667 25.3333H24C24.7072 25.3333 25.3855 25.0523 25.8856 24.5522C26.3857 24.0521 26.6667 23.3739 26.6667 22.6666V18.6666H22.6667C21.9594 18.6666 21.2811 18.9476 20.781 19.4477C20.281 19.9478 20 20.626 20 21.3333V22.6666C20 23.3739 20.281 24.0521 20.781 24.5522C21.2811 25.0523 21.9594 25.3333 22.6667 25.3333Z" stroke="white" stroke-width="1.5" stroke-linecap="round" stroke-linejoin="round"/>
            <path d="M7.99999 28H9.33333C10.0406 28 10.7188 27.7191 11.2189 27.219C11.719 26.7189 12 26.0406 12 25.3334V21.3334H7.99999C7.29275 21.3334 6.61447 21.6143 6.11438 22.1144C5.61428 22.6145 5.33333 23.2928 5.33333 24V25.3334C5.33333 26.0406 5.61428 26.7189 6.11438 27.219C6.61447 27.7191 7.29275 28 7.99999 28Z" stroke="white" stroke-width="1.5" stroke-linecap="round" stroke-linejoin="round"/>
        </symbol>

        <symbol id="ico-arrow" viewBox="0 0 27 16">
            <path d="M26.7071 8.70711C27.0976 8.31658 27.0976 7.68342 26.7071 7.29289L20.3431 0.928932C19.9526 0.538408 19.3195 0.538408 18.9289 0.928932C18.5384 1.31946 18.5384 1.95262 18.9289 2.34315L24.5858 8L18.9289 13.6569C18.5384 14.0474 18.5384 14.6805 18.9289 15.0711C19.3195 15.4616 19.9526 15.4616 20.3431 15.0711L26.7071 8.70711ZM0 9H26V7H0V9Z"/>
        </symbol>

        <symbol id="ico-play" viewBox="0 0 40 40">
            <path d="M20 37.5C15.3587 37.5 10.9075 35.6563 7.62563 32.3744C4.34374 29.0925 2.5 24.6413 2.5 20C2.5 15.3587 4.34374 10.9075 7.62563 7.62563C10.9075 4.34374 15.3587 2.5 20 2.5C24.6413 2.5 29.0925 4.34374 32.3744 7.62563C35.6563 10.9075 37.5 15.3587 37.5 20C37.5 24.6413 35.6563 29.0925 32.3744 32.3744C29.0925 35.6563 24.6413 37.5 20 37.5ZM20 40C25.3043 40 30.3914 37.8929 34.1421 34.1421C37.8929 30.3914 40 25.3043 40 20C40 14.6957 37.8929 9.60859 34.1421 5.85786C30.3914 2.10714 25.3043 0 20 0C14.6957 0 9.60859 2.10714 5.85786 5.85786C2.10714 9.60859 0 14.6957 0 20C0 25.3043 2.10714 30.3914 5.85786 34.1421C9.60859 37.8929 14.6957 40 20 40Z" />
            <path d="M15.6775 12.6375C15.882 12.5322 16.1115 12.4853 16.3409 12.5021C16.5702 12.5189 16.7905 12.5986 16.9775 12.7325L25.7275 18.9825C25.8895 19.0981 26.0216 19.2508 26.1127 19.4277C26.2039 19.6047 26.2514 19.8009 26.2514 20C26.2514 20.199 26.2039 20.3952 26.1127 20.5722C26.0216 20.7492 25.8895 20.9018 25.7275 21.0175L16.9775 27.2675C16.7906 27.4012 16.5704 27.4809 16.3412 27.4977C16.1119 27.5144 15.8825 27.4676 15.6781 27.3625C15.4737 27.2573 15.3023 27.0978 15.1826 26.9016C15.063 26.7053 14.9998 26.4798 15 26.25V13.75C14.9998 13.5202 15.0629 13.2948 15.1824 13.0985C15.3019 12.9022 15.4732 12.7427 15.6775 12.6375Z" />
        </symbol>

        <symbol id="ico-google" viewBox="0 0 25 24" fill="none">
            <path fill-rule="evenodd" clip-rule="evenodd" d="M23.54 12.2615C23.54 11.446 23.4668 10.6619 23.3309 9.90918H12.5V14.3576H18.6891C18.4225 15.7951 17.6123 17.013 16.3943 17.8285V20.714H20.1109C22.2855 18.7119 23.54 15.7637 23.54 12.2615Z" fill="#4285F4"/>
            <path fill-rule="evenodd" clip-rule="evenodd" d="M12.4999 23.4998C15.6049 23.4998 18.2081 22.47 20.1108 20.7137L16.3942 17.8282C15.3645 18.5182 14.0472 18.9259 12.4999 18.9259C9.50469 18.9259 6.96946 16.903 6.06514 14.1848H2.2231V17.1644C4.11537 20.9228 8.00446 23.4998 12.4999 23.4998Z" fill="#34A853"/>
            <path fill-rule="evenodd" clip-rule="evenodd" d="M6.06523 14.185C5.83523 13.495 5.70455 12.7579 5.70455 12C5.70455 11.242 5.83523 10.505 6.06523 9.81499V6.83545H2.22318C1.44432 8.38795 1 10.1443 1 12C1 13.8557 1.44432 15.612 2.22318 17.1645L6.06523 14.185Z" fill="#FBBC05"/>
            <path fill-rule="evenodd" clip-rule="evenodd" d="M12.4999 5.07386C14.1883 5.07386 15.7042 5.65409 16.8961 6.79364L20.1945 3.49523C18.2029 1.63955 15.5997 0.5 12.4999 0.5C8.00446 0.5 4.11537 3.07705 2.2231 6.83545L6.06514 9.815C6.96946 7.09682 9.50469 5.07386 12.4999 5.07386Z" fill="#EA4335"/>
        </symbol>

        <symbol id="ico-arrow-down" viewBox="0 0 20 11">
            <path fill-rule="evenodd" clip-rule="evenodd" d="M0.469425 0.968875C0.539094 0.899031 0.621857 0.843616 0.712975 0.805806C0.804093 0.767997 0.901774 0.748535 1.00043 0.748535C1.09908 0.748535 1.19676 0.767997 1.28788 0.805806C1.37899 0.843616 1.46176 0.899031 1.53143 0.968875L10.0004 9.43938L18.4694 0.968875C18.5392 0.899144 18.6219 0.843829 18.713 0.80609C18.8042 0.768352 18.9018 0.748928 19.0004 0.748928C19.099 0.748928 19.1967 0.768352 19.2878 0.80609C19.3789 0.843829 19.4617 0.899144 19.5314 0.968875C19.6012 1.03861 19.6565 1.12139 19.6942 1.2125C19.7319 1.30361 19.7514 1.40126 19.7514 1.49988C19.7514 1.59849 19.7319 1.69614 19.6942 1.78725C19.6565 1.87836 19.6012 1.96114 19.5314 2.03088L10.5314 11.0309C10.4618 11.1007 10.379 11.1561 10.2879 11.1939C10.1968 11.2318 10.0991 11.2512 10.0004 11.2512C9.90177 11.2512 9.80409 11.2318 9.71297 11.1939C9.62186 11.1561 9.53909 11.1007 9.46943 11.0309L0.469425 2.03088C0.39958 1.96121 0.344166 1.87844 0.306356 1.78733C0.268547 1.69621 0.249084 1.59853 0.249084 1.49988C0.249084 1.40122 0.268547 1.30354 0.306356 1.21243C0.344166 1.12131 0.39958 1.03854 0.469425 0.968875Z"/>
        </symbol>

        <symbol id="ico-fb" viewBox="0 0 24 24">
            <path fill-rule="evenodd" clip-rule="evenodd" d="M11.975 0.0578654C15.0002 0.0553871 17.9151 1.19422 20.1374 3.24691C22.3596 5.2996 23.7258 8.11506 23.963 11.131C24.2002 14.1469 23.2909 17.1413 21.4169 19.5162C19.5428 21.891 16.8418 23.4715 13.8534 23.942V15.5454H16.6509L17.1856 12.073H13.8513V9.82018C13.8513 8.87098 14.3179 7.94181 15.8098 7.94181H17.3257V4.98808C17.3257 4.98808 17.1655 4.96005 16.9052 4.924C16.3159 4.84293 15.7232 4.78947 15.129 4.7638C14.9648 4.75724 14.8006 4.75391 14.6363 4.75379C11.8929 4.75379 10.0966 6.41588 10.0966 9.42768V12.073H7.04877V15.5454H10.1006V23.942C7.12204 23.4604 4.43356 21.876 2.56915 19.5037C0.704741 17.1314 -0.199199 14.1446 0.036863 11.1366C0.272925 8.12858 1.63172 5.31937 3.84337 3.26693C6.05502 1.21449 8.95773 0.0689602 11.975 0.0578654Z"/>
        </symbol>
        <symbol id="ico-ig" viewBox="0 0 24 24">
            <path fill-rule="evenodd" clip-rule="evenodd" d="M12 2.16302C15.204 2.16302 15.584 2.17502 16.85 2.23302C18.018 2.28702 18.654 2.48102 19.078 2.64702C19.598 2.83902 20.072 3.14502 20.458 3.54302C20.858 3.93102 21.164 4.40302 21.358 4.92502C21.522 5.34902 21.718 5.98502 21.77 7.15302C21.828 8.41902 21.84 8.79902 21.84 12.003C21.84 15.207 21.828 15.587 21.77 16.853C21.716 18.023 21.522 18.657 21.356 19.081C21.156 19.598 20.8503 20.0674 20.4583 20.4594C20.0664 20.8513 19.5969 21.157 19.08 21.357C18.656 21.521 18.02 21.717 16.852 21.771C15.586 21.829 15.206 21.841 12.002 21.841C8.798 21.841 8.418 21.829 7.152 21.771C5.982 21.717 5.348 21.523 4.924 21.357C4.40264 21.1646 3.93107 20.8578 3.544 20.459C3.144 20.073 2.838 19.599 2.644 19.079C2.48 18.655 2.284 18.019 2.232 16.851C2.174 15.585 2.162 15.205 2.162 12.001C2.162 8.79702 2.174 8.41702 2.232 7.15102C2.286 5.98102 2.48 5.34702 2.646 4.92302C2.838 4.40302 3.146 3.92902 3.544 3.54302C3.93 3.14302 4.404 2.83702 4.924 2.64302C5.348 2.47902 5.984 2.28302 7.152 2.23102C8.418 2.17302 8.798 2.16102 12.002 2.16102L12 2.16302ZM12 -0.000976562C8.742 -0.000976562 8.334 0.0130237 7.054 0.0710237C5.774 0.131024 4.902 0.335024 4.14 0.631024C3.34 0.931024 2.614 1.40502 2.014 2.01502C1.404 2.61502 0.932 3.34102 0.63 4.14102C0.334 4.90302 0.13 5.77702 0.072 7.05502C0.014 8.33102 0 8.74102 0 12.001C0 15.261 0.014 15.669 0.072 16.949C0.132 18.229 0.332 19.099 0.63 19.861C0.93 20.661 1.404 21.387 2.014 21.987C2.614 22.597 3.34 23.069 4.14 23.371C4.902 23.667 5.776 23.871 7.054 23.929C8.33 23.987 8.742 24.001 12 24.001C15.26 24.001 15.668 23.987 16.948 23.929C18.228 23.869 19.098 23.669 19.86 23.369C20.6571 23.0609 21.381 22.5898 21.9855 21.9857C22.5899 21.3816 23.0615 20.6579 23.37 19.861C23.666 19.099 23.87 18.225 23.928 16.947C23.986 15.671 24 15.261 24 12.001C24 8.74102 23.986 8.33502 23.928 7.05502C23.868 5.77502 23.668 4.90502 23.368 4.14302C23.068 3.34302 22.596 2.61702 21.986 2.01702C21.3862 1.40679 20.6608 0.934517 19.86 0.633024C19.098 0.337023 18.224 0.133023 16.946 0.0750234C15.67 0.0150234 15.26 0.00102353 12 0.00102353V-0.000976562ZM12 5.83902C11.1908 5.83902 10.3895 5.99841 9.6419 6.30808C8.8943 6.61775 8.215 7.07164 7.64281 7.64383C7.07061 8.21603 6.61672 8.89532 6.30705 9.64293C5.99739 10.3905 5.838 11.1918 5.838 12.001C5.838 12.8102 5.99739 13.6115 6.30705 14.3591C6.61672 15.1067 7.07061 15.786 7.64281 16.3582C8.215 16.9304 8.8943 17.3843 9.6419 17.694C10.3895 18.0036 11.1908 18.163 12 18.163C13.6148 18.1339 15.1536 17.472 16.2853 16.3198C17.4169 15.1675 18.051 13.6171 18.051 12.002C18.051 10.387 17.4169 8.8365 16.2853 7.68426C15.1536 6.53201 13.6148 5.87012 12 5.84102V5.83902ZM12 16.003C10.9389 16.003 9.9212 15.5815 9.17087 14.8312C8.42053 14.0808 7.999 13.0632 7.999 12.002C7.999 10.9409 8.42053 9.92322 9.17087 9.17289C9.9212 8.42256 10.9389 8.00102 12 8.00102C13.0609 8.00102 14.0783 8.42245 14.8284 9.1726C15.5786 9.92274 16 10.9402 16 12.001C16 13.0619 15.5786 14.0793 14.8284 14.8294C14.0783 15.5796 13.0609 16.001 12 16.001V16.003ZM19.846 5.59502C19.846 5.78413 19.8088 5.97138 19.7364 6.14609C19.664 6.3208 19.558 6.47954 19.4242 6.61326C19.2905 6.74697 19.1318 6.85304 18.9571 6.92541C18.7824 6.99778 18.5951 7.03502 18.406 7.03502C18.2169 7.03502 18.0296 6.99778 17.8549 6.92541C17.6802 6.85304 17.5215 6.74697 17.3878 6.61326C17.254 6.47954 17.148 6.3208 17.0756 6.14609C17.0032 5.97138 16.966 5.78413 16.966 5.59502C16.966 5.21311 17.1177 4.84684 17.3878 4.57679C17.6578 4.30674 18.0241 4.15502 18.406 4.15502C18.7879 4.15502 19.1542 4.30674 19.4242 4.57679C19.6943 4.84684 19.846 5.21311 19.846 5.59502Z"/>
        </symbol>
        <symbol id="ico-pt" viewBox="0 0 24 26">
            <path fill-rule="evenodd" clip-rule="evenodd" d="M20.451 21.5438C18.2055 23.7687 15.171 25.015 12.01 25.0107C10.7689 25.0107 9.57194 24.8226 8.44701 24.4723C8.93942 23.6716 9.66002 22.3805 9.92424 21.3437L10.6749 18.4873C11.0612 19.2379 12.2081 19.8705 13.4231 19.8705C17.0421 19.8705 19.6503 16.5397 19.6503 12.3982C19.6503 8.42495 16.4076 5.45849 12.2482 5.45849C7.05786 5.45849 4.30958 8.93738 4.30958 12.7245C4.30958 14.494 5.25036 16.6778 6.7516 17.3804C6.97779 17.4885 7.1079 17.4404 7.15594 17.2203L7.27203 16.7539L7.49222 15.8571C7.51015 15.7974 7.51219 15.7341 7.49815 15.6733C7.48411 15.6126 7.45447 15.5566 7.41215 15.5108C6.91974 14.9103 6.52341 13.8014 6.52341 12.7726C6.52341 10.1244 8.53108 7.56424 11.9499 7.56424C14.9064 7.56424 16.9721 9.5699 16.9721 12.4483C16.9721 15.691 15.3307 17.9429 13.197 17.9429C12.02 17.9429 11.1292 16.964 11.4155 15.769C11.5396 15.2586 11.7017 14.7342 11.8598 14.2238C12.1441 13.303 12.4143 12.4263 12.4143 11.7657C12.4143 10.845 11.9219 10.0743 10.893 10.0743C9.68804 10.0743 8.71924 11.3194 8.71924 12.9907C8.71924 14.0476 9.07353 14.7702 9.07353 14.7702C9.07353 14.7702 7.88855 19.8024 7.67237 20.7412C7.43217 21.778 7.52224 23.2372 7.63233 24.188C5.38296 23.3067 3.45148 21.7677 2.08996 19.7721C0.728444 17.7764 0.000107645 15.4166 6.83182e-08 13.0008C-0.00017992 11.3132 0.355284 9.64455 1.04322 8.10358C1.73115 6.56261 2.73612 5.18392 3.99259 4.05738C5.24907 2.93083 6.72886 2.08173 8.33549 1.56542C9.94212 1.04911 11.6395 0.87718 13.3171 1.06084C16.2605 1.38274 18.9807 2.78277 20.9532 4.99111C22.9257 7.19945 24.011 10.0598 23.9999 13.0208C24.002 14.6056 23.6893 16.1751 23.0801 17.6382C22.4709 19.1012 21.5772 20.4288 20.451 21.5438Z" />
        </symbol>
        <symbol id="ico-tw" viewBox="0 0 24 22">
            <path d="M7.548 21.7893C16.604 21.7893 21.558 13.4853 21.558 6.2853C21.558 6.0493 21.558 5.8153 21.544 5.5813C22.5222 4.79311 23.3536 3.83847 24 2.7613C23.1103 3.19878 22.155 3.48793 21.172 3.6173C22.2 2.9373 22.97 1.8653 23.336 0.603295C22.3839 1.2324 21.3243 1.68119 20.21 1.9273C19.4977 1.07125 18.51 0.489384 17.416 0.281295C16.3402 0.0888968 15.231 0.292814 14.294 0.855295C13.3144 1.44893 12.5547 2.34548 12.13 3.4093C11.6817 4.51372 11.573 5.72679 11.818 6.8933C9.84302 6.77946 7.92043 6.21431 6.198 5.24129C4.41793 4.23281 2.87408 2.85535 1.67 1.2013C1.03727 2.42266 0.84648 3.8253 1.13 5.1713C1.414 6.5233 2.152 7.7033 3.194 8.4753C2.40255 8.44697 1.63232 8.21183 0.96 7.79329V7.8613C0.96 9.1213 1.354 10.3393 2.074 11.3113C2.794 12.2853 3.796 12.9533 4.91 13.2033C4.186 13.4213 3.424 13.4533 2.688 13.2953C3.002 14.3793 3.614 15.3253 4.44 16.0033C5.264 16.6833 6.26 17.0593 7.288 17.0793C5.544 18.5953 3.388 19.4193 1.172 19.4173C0.78 19.4173 0.39 19.3893 0 19.3373C2.19926 20.9198 4.83859 21.7744 7.548 21.7813" />
        </symbol>

   </defs>
</svg>