<svg style="position: absolute; width: 0; height: 0;" width="0" height="0" version="1.1"
     xmlns="http://www.w3.org/2000/svg" xmlns:xlink="http://www.w3.org/1999/xlink">

    <defs>

        <symbol id="logo" viewBox="0 0 215 50">
            <path fill-rule="evenodd" clip-rule="evenodd" d="M63.8004 18.2484C63.8004 15.8617 65.8604 13.997 69.0924 13.997C71.6496 13.997 73.9582 14.8548 76.2668 16.8313L77.9006 14.5564C75.3789 12.4307 72.7862 11.3492 69.1634 11.3492C64.4397 11.3492 60.9945 14.3327 60.9945 18.5095C60.9945 22.8354 63.6228 24.7747 69.341 26.0799C74.562 27.236 75.8051 28.6158 75.8051 31.0771C75.8051 33.7249 73.6031 35.5523 70.2645 35.5523C66.8193 35.5523 64.3331 34.3216 61.7404 31.8603L60.0001 34.0233C62.9835 36.8202 66.2155 38.2001 70.1579 38.2001C75.0948 38.2001 78.6465 35.2912 78.6465 30.7788C78.6465 26.7512 76.0892 24.6255 70.5486 23.3575C65.079 22.1269 63.8004 20.747 63.8004 18.2484V18.2484ZM108.525 33.6876L106.678 31.7857C104.298 34.1724 102.061 35.5523 98.651 35.5523C93.1814 35.5523 89.0259 30.8161 89.0259 24.7374C89.0259 18.6586 93.1459 13.997 98.651 13.997C102.025 13.997 104.369 15.4887 106.465 17.5771L108.383 15.4142C105.896 12.9528 103.197 11.2747 98.6865 11.2747C91.37 11.2747 86.1135 17.3534 86.1135 24.812C86.1135 32.3451 91.4055 38.2747 98.5799 38.2747C103.091 38.2747 105.932 36.4473 108.525 33.6876V33.6876ZM137.373 37.8271H133.928L126.718 27.6835H119.614V37.8271H116.809V11.7222H127.499C132.969 11.7222 136.485 14.8175 136.485 19.5164C136.485 23.8796 133.644 26.4155 129.737 27.1614L137.373 37.8271ZM133.644 19.6283C133.644 16.3838 131.3 14.4445 127.286 14.4445H119.614V25.0357H127.251C130.98 25.0357 133.644 23.0219 133.644 19.6283ZM147.81 11.7222V37.8271H150.616V11.7222H147.81ZM171.632 11.7222C176.534 11.7222 179.73 14.2581 179.73 18.2484C179.73 21.6794 177.741 23.4321 175.788 24.3271C178.736 25.2595 181.115 27.0495 181.115 30.6669C181.115 35.1794 177.528 37.8271 172.094 37.8271H161.048V11.7222H171.632ZM171.179 23.3575C174.553 23.3575 176.897 21.7539 176.897 18.6586C176.897 16.0481 174.944 14.37 171.392 14.37H163.827V23.3575H171.179ZM172.173 35.1794C175.938 35.1794 178.282 33.4266 178.282 30.4805C178.282 27.6089 176.009 25.968 171.676 25.968H163.827V35.1794H172.173ZM211.034 24.812C211.034 18.9943 207.021 14.4445 200.734 14.4445H194.909V35.1048H200.734C207.021 35.1048 211.034 30.6296 211.034 24.812ZM213.947 24.7374C213.947 32.1213 208.548 37.8271 200.734 37.8271H192.104V11.7222H200.734C208.548 11.7222 213.947 17.3534 213.947 24.7374Z" fill="black"/>
			<path fill-rule="evenodd" clip-rule="evenodd" d="M4.25371 24.6096C5.86745 26.6214 7.98743 27.627 10.611 27.627C12.8071 27.627 14.5354 26.9288 15.7973 25.5319C17.0584 24.1354 17.6899 22.4633 17.6899 20.5154C17.6899 18.5167 17.0769 16.9468 15.8533 15.8066C14.6297 14.6661 13.3243 14.0958 11.9368 14.0958C11.5078 14.0958 10.9394 14.1726 10.233 14.3267C9.5516 14.5058 9.09794 14.5954 8.87054 14.5954C7.86068 14.5954 7.35707 13.9551 7.35707 12.6735C7.35707 10.5207 8.37904 8.6696 10.4222 7.1186C11.02 6.66552 11.6338 6.27316 12.2596 5.93422C14.0564 5.07955 16.195 4.61072 18.5927 4.61072C23.2106 4.61072 27.3594 5.88003 30.9547 8.3883L28.2514 12.4696L32.0003 15.0697L37.0842 7.44794L35.4985 6.10676C30.7076 2.05442 25.0196 0 18.5927 0C8.68249 0 1.76141 6.38076 1.76141 15.5177V15.6426C1.77768 15.8174 1.77125 15.9907 1.77125 16.1686C1.77125 19.7564 2.63847 22.5978 4.25371 24.6096V24.6096Z" fill="black"/>
			<path fill-rule="evenodd" clip-rule="evenodd" d="M24.6695 24.3173C23.4084 25.7138 22.7769 27.3863 22.7769 29.3339C22.7769 31.3325 23.3899 32.9024 24.6135 34.0426C25.8367 35.1831 27.1425 35.753 28.5303 35.753C28.959 35.753 29.5273 35.677 30.2337 35.5225C30.9152 35.3434 31.3688 35.2539 31.5966 35.2539C32.6061 35.2539 33.1097 35.8941 33.1097 37.1757C33.1097 37.6376 33.0598 38.0845 32.9655 38.5184C31.2852 42.8432 26.9787 45.315 20.7481 45.315C15.457 45.315 10.3839 43.5484 6.25099 40.303L9.64581 36.1432L6.10922 33.2522L0 40.8372L1.55395 42.2987C6.7826 47.2168 13.5992 49.9257 20.7481 49.9257C21.5449 49.9257 22.3179 49.8865 23.0713 49.8181C27.1875 49.6244 31.2935 48.0085 34.1888 45.2677C37.1533 42.4616 38.6354 38.5845 38.6354 33.6391C38.6354 30.0513 37.8283 27.2514 36.2131 25.24C34.5993 23.2279 32.4793 22.2222 29.8558 22.2222C27.6597 22.2222 25.9313 22.9204 24.6695 24.3173V24.3173Z" fill="black"/>
        </symbol>

        <symbol id="ico-books" viewBox="0 0 32 32" fill="none">
            <g clip-path="url(#clip0_1_264)">
                <path d="M2 5.65588C3.77 4.91588 6.308 4.11788 8.776 3.86988C11.436 3.60188 13.692 3.99588 15 5.37388V24.8659C13.13 23.8059 10.76 23.6599 8.574 23.8799C6.214 24.1199 3.834 24.8019 2 25.5019V5.65588ZM17 5.37388C18.308 3.99588 20.564 3.60188 23.224 3.86988C25.692 4.11788 28.23 4.91588 30 5.65588V25.5019C28.164 24.8019 25.786 24.1179 23.426 23.8819C21.238 23.6599 18.87 23.8039 17 24.8659V5.37388ZM16 3.56588C14.03 1.87188 11.174 1.61988 8.574 1.87988C5.546 2.18588 2.49 3.22388 0.586 4.08988C0.411298 4.16934 0.263151 4.29739 0.159242 4.45875C0.0553334 4.62011 5.31428e-05 4.80796 0 4.99988L0 26.9999C4.6324e-05 27.1672 0.0420743 27.3318 0.122234 27.4787C0.202394 27.6256 0.318123 27.75 0.458822 27.8405C0.59952 27.9311 0.760689 27.9849 0.927567 27.997C1.09444 28.0091 1.2617 27.9792 1.414 27.9099C3.178 27.1099 6.02 26.1479 8.774 25.8699C11.592 25.5859 13.954 26.0439 15.22 27.6239C15.3137 27.7407 15.4324 27.8349 15.5674 27.8997C15.7024 27.9645 15.8503 27.9981 16 27.9981C16.1497 27.9981 16.2976 27.9645 16.4326 27.8997C16.5676 27.8349 16.6863 27.7407 16.78 27.6239C18.046 26.0439 20.408 25.5859 23.224 25.8699C25.98 26.1479 28.824 27.1099 30.586 27.9099C30.7383 27.9792 30.9056 28.0091 31.0724 27.997C31.2393 27.9849 31.4005 27.9311 31.5412 27.8405C31.6819 27.75 31.7976 27.6256 31.8778 27.4787C31.9579 27.3318 32 27.1672 32 26.9999V4.99988C31.9999 4.80796 31.9447 4.62011 31.8408 4.45875C31.7368 4.29739 31.5887 4.16934 31.414 4.08988C29.51 3.22388 26.454 2.18588 23.426 1.87988C20.826 1.61788 17.97 1.87188 16 3.56588Z" fill="white"/>
            </g>
            <defs>
                <clipPath id="clip0_1_264">
                <rect width="32" height="32" fill="white"/>
                </clipPath>
            </defs>
        </symbol>

        <symbol id="ico-documents" viewBox="0 0 32 31" fill="none">
            <g clip-path="url(#clip0_1_281)">
            <path d="M1.42306 26.3529H18.3529C19.1313 26.3529 19.7647 25.7195 19.7647 24.9412V7.05882C19.7647 7.03718 19.7553 7.01835 19.7525 6.99765C19.7498 6.97792 19.7458 6.95841 19.7402 6.93929C19.7218 6.85908 19.6821 6.78529 19.6254 6.72565L13.0381 0.138353C12.9635 0.067839 12.8681 0.0232799 12.7661 0.0112941C12.7464 0.00941176 12.7275 0 12.7059 0H1.41741C0.636235 0 0 0.633412 0 1.41176V24.9412C0 25.7195 0.638118 26.3529 1.42306 26.3529ZM13.1765 1.60659L18.1581 6.58824H13.6471C13.5223 6.58824 13.4026 6.53866 13.3143 6.4504C13.2261 6.36215 13.1765 6.24246 13.1765 6.11765V1.60659ZM0.941176 1.41176C0.941176 1.152 1.15482 0.941176 1.41741 0.941176H12.2353V6.11765C12.2353 6.896 12.8687 7.52941 13.6471 7.52941H18.8235V24.9412C18.8235 25.066 18.774 25.1857 18.6857 25.2739C18.5974 25.3622 18.4777 25.4118 18.3529 25.4118H1.42306C1.36052 25.4125 1.29844 25.4009 1.24038 25.3777C1.18231 25.3544 1.12939 25.32 1.08465 25.2763C1.0399 25.2326 1.0042 25.1805 0.97958 25.123C0.954963 25.0655 0.941914 25.0037 0.941176 24.9412V1.41176Z" fill="white"/>
            <path d="M4.2353 11.2941H15.5294C15.6542 11.2941 15.7739 11.2445 15.8622 11.1562C15.9504 11.068 16 10.9483 16 10.8235C16 10.6987 15.9504 10.579 15.8622 10.4907C15.7739 10.4025 15.6542 10.3529 15.5294 10.3529H4.2353C4.11049 10.3529 3.99079 10.4025 3.90254 10.4907C3.81429 10.579 3.76471 10.6987 3.76471 10.8235C3.76471 10.9483 3.81429 11.068 3.90254 11.1562C3.99079 11.2445 4.11049 11.2941 4.2353 11.2941Z" fill="white"/>
            <path d="M4.2353 15.0589H15.5294C15.6542 15.0589 15.7739 15.0093 15.8622 14.921C15.9504 14.8328 16 14.7131 16 14.5883C16 14.4635 15.9504 14.3438 15.8622 14.2555C15.7739 14.1673 15.6542 14.1177 15.5294 14.1177H4.2353C4.11049 14.1177 3.99079 14.1673 3.90254 14.2555C3.81429 14.3438 3.76471 14.4635 3.76471 14.5883C3.76471 14.7131 3.81429 14.8328 3.90254 14.921C3.99079 15.0093 4.11049 15.0589 4.2353 15.0589Z" fill="white"/>
            <path d="M4.2353 7.52943H8.94118C9.06599 7.52943 9.18568 7.47985 9.27394 7.3916C9.36219 7.30335 9.41177 7.18365 9.41177 7.05885C9.41177 6.93404 9.36219 6.81434 9.27394 6.72609C9.18568 6.63784 9.06599 6.58826 8.94118 6.58826H4.2353C4.11049 6.58826 3.99079 6.63784 3.90254 6.72609C3.81429 6.81434 3.76471 6.93404 3.76471 7.05885C3.76471 7.18365 3.81429 7.30335 3.90254 7.3916C3.99079 7.47985 4.11049 7.52943 4.2353 7.52943Z" fill="white"/>
            <path d="M4.2353 18.8235H15.5294C15.6542 18.8235 15.7739 18.7739 15.8622 18.6857C15.9504 18.5974 16 18.4777 16 18.3529C16 18.2281 15.9504 18.1084 15.8622 18.0202C15.7739 17.9319 15.6542 17.8823 15.5294 17.8823H4.2353C4.11049 17.8823 3.99079 17.9319 3.90254 18.0202C3.81429 18.1084 3.76471 18.2281 3.76471 18.3529C3.76471 18.4777 3.81429 18.5974 3.90254 18.6857C3.99079 18.7739 4.11049 18.8235 4.2353 18.8235Z" fill="white"/>
            <path d="M4.2353 22.5883H15.5294C15.6542 22.5883 15.7739 22.5387 15.8622 22.4504C15.9504 22.3622 16 22.2425 16 22.1177C16 21.9929 15.9504 21.8732 15.8622 21.7849C15.7739 21.6967 15.6542 21.6471 15.5294 21.6471H4.2353C4.11049 21.6471 3.99079 21.6967 3.90254 21.7849C3.81429 21.8732 3.76471 21.9929 3.76471 22.1177C3.76471 22.2425 3.81429 22.3622 3.90254 22.4504C3.99079 22.5387 4.11049 22.5883 4.2353 22.5883Z" fill="white"/>
            <path d="M20.2353 4.70582H24.4706V9.8823C24.4706 10.6606 25.104 11.2941 25.8823 11.2941H31.0588V28.7058C31.0588 28.8306 31.0092 28.9503 30.921 29.0386C30.8327 29.1268 30.713 29.1764 30.5882 29.1764H13.6583C13.5958 29.1772 13.5337 29.1656 13.4757 29.1423C13.4176 29.1191 13.3647 29.0846 13.3199 29.0409C13.2752 28.9972 13.2395 28.9451 13.2149 28.8876C13.1903 28.8301 13.1772 28.7684 13.1765 28.7058V27.7646C13.1765 27.6398 13.1269 27.5201 13.0386 27.4319C12.9504 27.3436 12.8307 27.2941 12.7059 27.2941C12.5811 27.2941 12.4614 27.3436 12.3731 27.4319C12.2849 27.5201 12.2353 27.6398 12.2353 27.7646V28.7058C12.2353 29.4842 12.8734 30.1176 13.6583 30.1176H30.5882C31.3666 30.1176 32 29.4842 32 28.7058V10.8235C32 10.8018 31.9906 10.783 31.9878 10.7623C31.9851 10.7426 31.981 10.7231 31.9755 10.7039C31.9571 10.6237 31.9174 10.5499 31.8607 10.4903L25.2734 3.903C25.1993 3.8319 25.1036 3.78753 25.0014 3.77688C24.9816 3.77406 24.9628 3.76465 24.9412 3.76465H20.2353C20.1105 3.76465 19.9908 3.81423 19.9025 3.90248C19.8143 3.99073 19.7647 4.11043 19.7647 4.23524C19.7647 4.36004 19.8143 4.47974 19.9025 4.56799C19.9908 4.65625 20.1105 4.70582 20.2353 4.70582ZM25.8823 10.3529C25.7575 10.3529 25.6378 10.3033 25.5496 10.2151C25.4613 10.1268 25.4118 10.0071 25.4118 9.8823V5.37124L30.3934 10.3529H25.8823Z" fill="white"/>
            <path d="M22.1177 15.0589H27.7647C27.8895 15.0589 28.0092 15.0093 28.0975 14.921C28.1857 14.8328 28.2353 14.7131 28.2353 14.5883C28.2353 14.4635 28.1857 14.3438 28.0975 14.2555C28.0092 14.1673 27.8895 14.1177 27.7647 14.1177H22.1177C21.9928 14.1177 21.8731 14.1673 21.7849 14.2555C21.6966 14.3438 21.6471 14.4635 21.6471 14.5883C21.6471 14.7131 21.6966 14.8328 21.7849 14.921C21.8731 15.0093 21.9928 15.0589 22.1177 15.0589Z" fill="white"/>
            <path d="M22.1177 18.8235H27.7647C27.8895 18.8235 28.0092 18.7739 28.0975 18.6857C28.1857 18.5974 28.2353 18.4777 28.2353 18.3529C28.2353 18.2281 28.1857 18.1084 28.0975 18.0202C28.0092 17.9319 27.8895 17.8823 27.7647 17.8823H22.1177C21.9928 17.8823 21.8731 17.9319 21.7849 18.0202C21.6966 18.1084 21.6471 18.2281 21.6471 18.3529C21.6471 18.4777 21.6966 18.5974 21.7849 18.6857C21.8731 18.7739 21.9928 18.8235 22.1177 18.8235Z" fill="white"/>
            <path d="M22.1177 22.5883H27.7647C27.8895 22.5883 28.0092 22.5387 28.0975 22.4504C28.1857 22.3622 28.2353 22.2425 28.2353 22.1177C28.2353 21.9929 28.1857 21.8732 28.0975 21.7849C28.0092 21.6967 27.8895 21.6471 27.7647 21.6471H22.1177C21.9928 21.6471 21.8731 21.6967 21.7849 21.7849C21.6966 21.8732 21.6471 21.9929 21.6471 22.1177C21.6471 22.2425 21.6966 22.3622 21.7849 22.4504C21.8731 22.5387 21.9928 22.5883 22.1177 22.5883Z" fill="white"/>
            <path d="M22.1177 26.3529H27.7647C27.8895 26.3529 28.0092 26.3033 28.0975 26.2151C28.1857 26.1268 28.2353 26.0071 28.2353 25.8823C28.2353 25.7575 28.1857 25.6378 28.0975 25.5496C28.0092 25.4613 27.8895 25.4117 27.7647 25.4117H22.1177C21.9928 25.4117 21.8731 25.4613 21.7849 25.5496C21.6966 25.6378 21.6471 25.7575 21.6471 25.8823C21.6471 26.0071 21.6966 26.1268 21.7849 26.2151C21.8731 26.3033 21.9928 26.3529 22.1177 26.3529Z" fill="white"/>
            </g>
            <defs>
            <clipPath id="clip0_1_281">
            <rect width="32" height="30.1176" fill="white"/>
            </clipPath>
            </defs>
        </symbol>

        <symbol id="ico-music" viewBox="0 0 32 32" fill="none">
            <path d="M16 2.66663C12.642 2.72973 9.44601 4.12207 7.11312 6.53829C4.78022 8.9545 3.50084 12.1973 3.55556 15.5555V27.5555H8.17779C8.82228 27.5698 9.44616 27.3281 9.91269 26.8832C10.3792 26.4383 10.6504 25.8266 10.6667 25.1822V19.2622C10.6504 18.6177 10.3792 18.006 9.91269 17.5612C9.44616 17.1163 8.82228 16.8745 8.17779 16.8888H5.33334V15.5555C5.27853 12.6688 6.3706 9.87809 8.37011 7.79526C10.3696 5.71243 13.1134 4.50742 16 4.4444C18.8866 4.50742 21.6304 5.71243 23.6299 7.79526C25.6294 9.87809 26.7215 12.6688 26.6667 15.5555V16.8888H23.8222C23.1777 16.8745 22.5539 17.1163 22.0873 17.5612C21.6208 18.006 21.3497 18.6177 21.3333 19.2622V25.1911C21.352 25.834 21.6241 26.4434 22.0904 26.8863C22.5567 27.3293 23.1792 27.5699 23.8222 27.5555H28.4445V15.5555C28.4992 12.1973 27.2198 8.9545 24.8869 6.53829C22.554 4.12207 19.3581 2.72973 16 2.66663ZM8.17779 18.6666C8.35044 18.6541 8.52118 18.7093 8.6539 18.8205C8.78661 18.9316 8.87088 19.09 8.8889 19.2622V25.1911C8.87088 25.3632 8.78661 25.5216 8.6539 25.6328C8.52118 25.7439 8.35044 25.7991 8.17779 25.7866H5.33334V18.6666H8.17779ZM23.1111 25.1822V19.2622C23.1291 19.09 23.2134 18.9316 23.3461 18.8205C23.4788 18.7093 23.6496 18.6541 23.8222 18.6666H26.6667V25.7777H23.8222C23.6496 25.7902 23.4788 25.7351 23.3461 25.6239C23.2134 25.5128 23.1291 25.3543 23.1111 25.1822Z" fill="white"/>
        </symbol>

        <symbol id="ico-podcast" viewBox="0 0 32 32" fill="none">
            <path d="M10 0H26C27.0609 0 28.0783 0.421427 28.8284 1.17157C29.5786 1.92172 30 2.93913 30 4V24C30 25.0609 29.5786 26.0783 28.8284 26.8284C28.0783 27.5786 27.0609 28 26 28C26 29.0609 25.5786 30.0783 24.8284 30.8284C24.0783 31.5786 23.0609 32 22 32H6C4.93913 32 3.92172 31.5786 3.17157 30.8284C2.42143 30.0783 2 29.0609 2 28H4C4 28.5304 4.21071 29.0391 4.58579 29.4142C4.96086 29.7893 5.46957 30 6 30H22C22.5304 30 23.0391 29.7893 23.4142 29.4142C23.7893 29.0391 24 28.5304 24 28V8C24 7.46957 23.7893 6.96086 23.4142 6.58579C23.0391 6.21071 22.5304 6 22 6H6C5.46957 6 4.96086 6.21071 4.58579 6.58579C4.21071 6.96086 4 7.46957 4 8H2C2 6.93913 2.42143 5.92172 3.17157 5.17157C3.92172 4.42143 4.93913 4 6 4H22C23.0609 4 24.0783 4.42143 24.8284 5.17157C25.5786 5.92172 26 6.93913 26 8V26C26.5304 26 27.0391 25.7893 27.4142 25.4142C27.7893 25.0391 28 24.5304 28 24V4C28 3.46957 27.7893 2.96086 27.4142 2.58579C27.0391 2.21071 26.5304 2 26 2H10C9.46957 2 8.96086 2.21071 8.58579 2.58579C8.21071 2.96086 8 3.46957 8 4H6C6 2.93913 6.42143 1.92172 7.17157 1.17157C7.92172 0.421427 8.93913 0 10 0V0Z" fill="white"/>
            <path d="M2 12V11C2 10.7348 2.10536 10.4804 2.29289 10.2929C2.48043 10.1054 2.73478 10 3 10C3.26522 10 3.51957 10.1054 3.70711 10.2929C3.89464 10.4804 4 10.7348 4 11V12H5C5.26522 12 5.51957 12.1054 5.70711 12.2929C5.89464 12.4804 6 12.7348 6 13C6 13.2652 5.89464 13.5196 5.70711 13.7071C5.51957 13.8946 5.26522 14 5 14H1C0.734784 14 0.48043 13.8946 0.292893 13.7071C0.105357 13.5196 0 13.2652 0 13C0 12.7348 0.105357 12.4804 0.292893 12.2929C0.48043 12.1054 0.734784 12 1 12H2ZM2 18V17C2 16.7348 2.10536 16.4804 2.29289 16.2929C2.48043 16.1054 2.73478 16 3 16C3.26522 16 3.51957 16.1054 3.70711 16.2929C3.89464 16.4804 4 16.7348 4 17V18H5C5.26522 18 5.51957 18.1054 5.70711 18.2929C5.89464 18.4804 6 18.7348 6 19C6 19.2652 5.89464 19.5196 5.70711 19.7071C5.51957 19.8946 5.26522 20 5 20H1C0.734784 20 0.48043 19.8946 0.292893 19.7071C0.105357 19.5196 0 19.2652 0 19C0 18.7348 0.105357 18.4804 0.292893 18.2929C0.48043 18.1054 0.734784 18 1 18H2ZM2 23V24H1C0.734784 24 0.48043 24.1054 0.292893 24.2929C0.105357 24.4804 0 24.7348 0 25C0 25.2652 0.105357 25.5196 0.292893 25.7071C0.48043 25.8946 0.734784 26 1 26H5C5.26522 26 5.51957 25.8946 5.70711 25.7071C5.89464 25.5196 6 25.2652 6 25C6 24.7348 5.89464 24.4804 5.70711 24.2929C5.51957 24.1054 5.26522 24 5 24H4V23C4 22.7348 3.89464 22.4804 3.70711 22.2929C3.51957 22.1054 3.26522 22 3 22C2.73478 22 2.48043 22.1054 2.29289 22.2929C2.10536 22.4804 2 22.7348 2 23Z" fill="white"/>
        </symbol>

        <symbol id="ico-magazines" viewBox="0 0 32 32" fill="none">
            <path d="M16 20.5C17.5908 20.4982 19.1158 19.8655 20.2407 18.7407C21.3655 17.6158 21.9982 16.0908 22 14.5V7C22 5.4087 21.3679 3.88258 20.2426 2.75736C19.1174 1.63214 17.5913 1 16 1C14.4087 1 12.8826 1.63214 11.7574 2.75736C10.6321 3.88258 10 5.4087 10 7V14.5C10.0018 16.0908 10.6345 17.6158 11.7593 18.7407C12.8842 19.8655 14.4092 20.4982 16 20.5ZM12 7C12 5.93913 12.4214 4.92172 13.1716 4.17157C13.9217 3.42143 14.9391 3 16 3C17.0609 3 18.0783 3.42143 18.8284 4.17157C19.5786 4.92172 20 5.93913 20 7V14.5C20 15.5609 19.5786 16.5783 18.8284 17.3284C18.0783 18.0786 17.0609 18.5 16 18.5C14.9391 18.5 13.9217 18.0786 13.1716 17.3284C12.4214 16.5783 12 15.5609 12 14.5V7Z" fill="white"/>
            <path d="M25 11V14.5C25 19.4625 20.9625 23.5 16 23.5C11.0375 23.5 7 19.4625 7 14.5V11H5V14.5C5 20.2283 9.4015 24.9471 15 25.4541V31H17V25.4541C22.5985 24.9471 27 20.2283 27 14.5V11H25Z" fill="white"/>
        </symbol>

        <symbol id="ico-audio" viewBox="0 0 32 32" fill="none">
            <path d="M26.6667 18.6667V4L12 6.66667V21.3333" stroke="white" stroke-width="1.5" stroke-linecap="round" stroke-linejoin="round"/>
            <path d="M22.6667 25.3333H24C24.7072 25.3333 25.3855 25.0523 25.8856 24.5522C26.3857 24.0521 26.6667 23.3739 26.6667 22.6666V18.6666H22.6667C21.9594 18.6666 21.2811 18.9476 20.781 19.4477C20.281 19.9478 20 20.626 20 21.3333V22.6666C20 23.3739 20.281 24.0521 20.781 24.5522C21.2811 25.0523 21.9594 25.3333 22.6667 25.3333Z" stroke="white" stroke-width="1.5" stroke-linecap="round" stroke-linejoin="round"/>
            <path d="M7.99999 28H9.33333C10.0406 28 10.7188 27.7191 11.2189 27.219C11.719 26.7189 12 26.0406 12 25.3334V21.3334H7.99999C7.29275 21.3334 6.61447 21.6143 6.11438 22.1144C5.61428 22.6145 5.33333 23.2928 5.33333 24V25.3334C5.33333 26.0406 5.61428 26.7189 6.11438 27.219C6.61447 27.7191 7.29275 28 7.99999 28Z" stroke="white" stroke-width="1.5" stroke-linecap="round" stroke-linejoin="round"/>
        </symbol>

        <symbol id="ico-arrow" viewBox="0 0 27 16">
            <path d="M26.7071 8.70711C27.0976 8.31658 27.0976 7.68342 26.7071 7.29289L20.3431 0.928932C19.9526 0.538408 19.3195 0.538408 18.9289 0.928932C18.5384 1.31946 18.5384 1.95262 18.9289 2.34315L24.5858 8L18.9289 13.6569C18.5384 14.0474 18.5384 14.6805 18.9289 15.0711C19.3195 15.4616 19.9526 15.4616 20.3431 15.0711L26.7071 8.70711ZM0 9H26V7H0V9Z"/>
        </symbol>


   </defs>
</svg>